<?xml version="1.0" encoding="utf-8"?>
<!-- Generator: Adobe Illustrator 19.0.0, SVG Export Plug-In . SVG Version: 6.00 Build 0)  -->
<svg version="1.1" id="Layer_1" xmlns="http://www.w3.org/2000/svg" xmlns:xlink="http://www.w3.org/1999/xlink" x="0px" y="0px"
	 viewBox="0 0 280 220.1" style="enable-background:new 0 0 280 220.1;" xml:space="preserve">
<style type="text/css">
	.st0{fill-rule:evenodd;clip-rule:evenodd;fill:#78001F;}
	.st1{fill-rule:evenodd;clip-rule:evenodd;fill:#9E0027;}
	.st2{fill:none;stroke:#78001F;stroke-width:0.216;stroke-miterlimit:22.9256;}
	.st3{fill:#FFFFFF;}
</style>
<polygon id="XMLID_16_" class="st0" points="55.2,210.9 268.3,208.5 172.1,8.4 "/>
<polygon id="XMLID_15_" class="st1" points="129.5,7.9 172.3,7.9 55.8,210.9 13,210.9 "/>
<polygon id="XMLID_14_" class="st2" points="129.5,7.9 172.3,7.9 55.8,210.9 13,210.9 "/>
<path id="XMLID_19_" class="st3" d="M122.3,45.4l6.5,8.3l3.9-6.5L122.3,45.4z M114.4,43.8l2.7-4.6l30,5.1l-2.8,4.8l-6.2-1.1
	l-5.9,9.9l3.9,4.9l-2.8,4.8L114.4,43.8z M111.1,71.2l0.9-1.5c0.7-1.2,1.1-2,1.2-2.6c0.1-0.6,0-1.1-0.2-1.6c-0.2-0.5-0.6-0.9-1.2-1.2
	c-0.9-0.6-1.9-0.6-2.7-0.1c-0.6,0.3-1.4,1.2-2.2,2.7l-0.8,1.3L111.1,71.2z M98.8,70.2l2.9-4.9c1.6-2.6,2.9-4.4,4.1-5.3
	c1.2-0.9,2.5-1.3,4-1.4c1.5,0,3,0.4,4.6,1.3c1.7,1,2.9,2.3,3.5,3.8c0.6,1.6,0.7,3.2,0.2,5c-0.3,1-1.1,2.7-2.5,5.1L126,80l-2.7,4.6
	L98.8,70.2z M100,90.1l0.9-1.5c0.7-1.2,1.1-2,1.2-2.6c0.1-0.6,0-1.1-0.2-1.6c-0.2-0.5-0.6-0.9-1.2-1.2c-0.9-0.6-1.9-0.6-2.7-0.1
	c-0.6,0.3-1.4,1.2-2.2,2.7l-0.8,1.3L100,90.1z M87.7,89l2.9-4.9c1.6-2.6,2.9-4.4,4.1-5.3c1.2-0.9,2.5-1.3,4-1.4c1.5,0,3,0.4,4.6,1.3
	c1.7,1,2.9,2.3,3.5,3.8c0.6,1.6,0.7,3.2,0.2,5c-0.3,1-1.1,2.7-2.5,5.1l10.3,6.1l-2.7,4.6L87.7,89z M85.2,108.1l6.5,8.3l3.9-6.5
	L85.2,108.1z M77.3,106.5l2.7-4.6l30,5.1l-2.8,4.8l-6.2-1.1l-5.9,9.9l3.9,4.9l-2.8,4.8L77.3,106.5z M59.5,136.6l2.9-4.9l11.4,0.7
	l-6.1-9.7l2.9-4.9l9.7,15.3l10.6,6.3l-2.8,4.7l-10.6-6.3L59.5,136.6z M47.2,157.5l2.9-4.9l11.4,0.7l-6.1-9.7l2.9-4.9l9.7,15.3
	l10.6,6.3l-2.8,4.7l-10.6-6.3L47.2,157.5z M45.7,174.8l6.5,8.3l3.9-6.5L45.7,174.8z M37.8,173.3l2.7-4.6l30,5.1l-2.8,4.8l-6.2-1.1
	l-5.9,9.9l3.9,4.9l-2.8,4.8L37.8,173.3z"/>
<path id="XMLID_1_" class="st3" d="M184.9,128.5c1.2-1.2,2.3-2.7,3.4-4.3c1.1-1.6,1.4-3.2,1.1-4.7l-0.3-1.2
	c-0.5-2.3-2.5-3.7-5.8-4.3c-3.3-0.6-7.6-0.9-12.7-0.8c-6.4,0.1-11.3,1.2-14.9,3.2c-3.6,2-4.7,5.6-3.5,10.7c0.7,3,6.8,8.4,18.2,16
	c11.4,7.6,19.8,13.6,25.2,18c5.4,4.4,8.9,10.3,10.7,17.7c1.3,5.4,1.4,10.1,0.3,14.2c-1.1,4.1-2.9,9-5.5,14.7l-1.5,0
	c0.5-1,1.1-3,1.8-6c0.7-3.1,0.6-6.5-0.3-10.3c-0.2-0.9-0.5-1.9-0.7-3c-0.3-1.1-0.5-2-0.6-2.6c-1.2-5.1-8.4-11.3-21.6-18.5
	c-13.2-7.2-26.4-14.4-39.9-21.6c-13.4-7.3-20.7-13.4-21.9-18.3c-1.7-7,1.7-12.6,10.3-16.8c8.5-4.3,19.6-6.5,33.3-6.7
	c12-0.2,21.6,1,28.8,3.5c7.2,2.5,11.7,5.4,13.5,8.6c0.5,2.1-0.7,4.3-3.5,6.7C196,124.9,191.4,126.9,184.9,128.5"/>
</svg>
