<?xml version="1.0" encoding="utf-8"?>
<!-- Generator: Adobe Illustrator 19.0.0, SVG Export Plug-In . SVG Version: 6.00 Build 0)  -->
<svg version="1.1" id="Layer_1" xmlns="http://www.w3.org/2000/svg" xmlns:xlink="http://www.w3.org/1999/xlink" x="0px" y="0px"
	 viewBox="0 0 300 300" style="enable-background:new 0 0 300 300;" xml:space="preserve">
<style type="text/css">
	.st0{fill-rule:evenodd;clip-rule:evenodd;fill:#9E0027;}
	.st1{fill-rule:evenodd;clip-rule:evenodd;fill:#78001F;}
	.st2{font-family:'CenturyGothic-Bold';}
	.st3{font-size:58.436px;}
</style>
<path id="XMLID_4_" class="st0" d="M148.4,54.4c7.9,5.6,35.1,57.2,42.4,70.2c13.5,24,28.1,47.1,41,71.6h-23
	c-6.4-16.1-48.5-80.7-57.8-102.8l-4.1,3.9c4.1,4.8,1.7-1.6,2.7,9.1c0.1,1.5,0,8,0,9.9c-0.1,8.4,0.1,12.1-1.6,20.3l25.5,40.3
	c7.3,12.3,17.9,28,22.4,40.6l72.1,0c-5.3-15.7-21.3-38.2-29.5-53c-9.9-17.7-19.6-33.7-29.1-50.8C200,97,190,80,180,63.1
	c-9.4-16-21.6-35-29.4-51.6l-3.8,3.2c4.4,5.2,1.8-1.4,2.8,9.3c0.1,1.4,0,8.1-0.1,9.9C149.5,41.8,149.6,46.5,148.4,54.4"/>
<path id="XMLID_3_" class="st1" d="M148.4,54.4c1.3-7.9,1.1-12.6,1.2-20.5c0-1.8,0.2-8.6,0.1-9.9c-0.9-10.7,1.6-4.1-2.8-9.3
	c-11.5,20-110.3,187.2-116,202.7l72.2-0.1l9.8-20l-46-1.2L148.4,54.4z"/>
<path id="XMLID_2_" class="st1" d="M148,136.5c1.7-8.3,1.5-11.9,1.6-20.3c0-1.9,0.1-8.4,0-9.9c-1-10.6,1.5-4.3-2.7-9.1
	c-8.2,13.1-14.9,26-22.8,39c-6.3,10.4-18.2,29.4-22.5,40.1l24.4-0.4L148,136.5z"/>
<text id="XMLID_1_" transform="matrix(1 0 0 1 15.662 271.3152)" class="st2 st3">AYYAPPA</text>
</svg>
