<svg xmlns="http://www.w3.org/2000/svg" height="638pt" version="1.1" viewBox="-3 0 638 638.75104" width="638pt">
<g id="surface1">
<path d="M 432.132812 105.308594 L 432.132812 0.398438 L 221.519531 105.707031 L 221.519531 0 L 0.375 116.425781 L 0.375 638.75 L 632.214844 638.75 L 632.214844 0 Z M 200.457031 617.6875 L 21.4375 617.6875 L 21.4375 129.0625 L 200.457031 34.878906 Z M 411.070312 617.6875 L 221.519531 617.6875 L 221.519531 129.253906 L 411.070312 34.476562 Z M 611.152344 617.6875 L 432.132812 617.6875 L 432.132812 129.0625 L 611.152344 34.878906 Z M 611.152344 617.6875 " style=" stroke:none;fill-rule:nonzero;fill:rgb(0%,0%,0%);fill-opacity:1;" />
<path d="M 105.683594 301.769531 L 42.496094 301.769531 L 42.496094 238.582031 L 105.683594 238.582031 Z M 63.558594 280.707031 L 84.621094 280.707031 L 84.621094 259.644531 L 63.558594 259.644531 Z M 63.558594 280.707031 " style=" stroke:none;fill-rule:nonzero;fill:rgb(0%,0%,0%);fill-opacity:1;" />
<path d="M 179.394531 301.769531 L 116.214844 301.769531 L 116.214844 238.582031 L 179.394531 238.582031 Z M 137.277344 280.707031 L 158.332031 280.707031 L 158.332031 259.644531 L 137.277344 259.644531 Z M 137.277344 280.707031 " style=" stroke:none;fill-rule:nonzero;fill:rgb(0%,0%,0%);fill-opacity:1;" />
<path d="M 105.683594 386.011719 L 42.496094 386.011719 L 42.496094 322.832031 L 105.683594 322.832031 Z M 63.558594 364.949219 L 84.621094 364.949219 L 84.621094 343.894531 L 63.558594 343.894531 Z M 63.558594 364.949219 " style=" stroke:none;fill-rule:nonzero;fill:rgb(0%,0%,0%);fill-opacity:1;" />
<path d="M 179.394531 386.011719 L 116.214844 386.011719 L 116.214844 322.832031 L 179.394531 322.832031 Z M 137.277344 364.949219 L 158.332031 364.949219 L 158.332031 343.894531 L 137.277344 343.894531 Z M 137.277344 364.949219 " style=" stroke:none;fill-rule:nonzero;fill:rgb(0%,0%,0%);fill-opacity:1;" />
<path d="M 105.683594 470.257812 L 42.496094 470.257812 L 42.496094 407.074219 L 105.683594 407.074219 Z M 63.558594 449.199219 L 84.621094 449.199219 L 84.621094 428.136719 L 63.558594 428.136719 Z M 63.558594 449.199219 " style=" stroke:none;fill-rule:nonzero;fill:rgb(0%,0%,0%);fill-opacity:1;" />
<path d="M 179.394531 470.257812 L 116.214844 470.257812 L 116.214844 407.074219 L 179.394531 407.074219 Z M 137.277344 449.199219 L 158.332031 449.199219 L 158.332031 428.136719 L 137.277344 428.136719 Z M 137.277344 449.199219 " style=" stroke:none;fill-rule:nonzero;fill:rgb(0%,0%,0%);fill-opacity:1;" />
<path d="M 105.683594 554.507812 L 42.496094 554.507812 L 42.496094 491.320312 L 105.683594 491.320312 Z M 63.558594 533.445312 L 84.621094 533.445312 L 84.621094 512.382812 L 63.558594 512.382812 Z M 63.558594 533.445312 " style=" stroke:none;fill-rule:nonzero;fill:rgb(0%,0%,0%);fill-opacity:1;" />
<path d="M 179.394531 554.507812 L 116.214844 554.507812 L 116.214844 491.320312 L 179.394531 491.320312 Z M 137.277344 533.445312 L 158.332031 533.445312 L 158.332031 512.382812 L 137.277344 512.382812 Z M 137.277344 533.445312 " style=" stroke:none;fill-rule:nonzero;fill:rgb(0%,0%,0%);fill-opacity:1;" />
<path d="M 305.765625 301.769531 L 242.582031 301.769531 L 242.582031 238.582031 L 305.765625 238.582031 Z M 263.644531 280.707031 L 284.703125 280.707031 L 284.703125 259.644531 L 263.644531 259.644531 Z M 263.644531 280.707031 " style=" stroke:none;fill-rule:nonzero;fill:rgb(0%,0%,0%);fill-opacity:1;" />
<path d="M 390.007812 301.769531 L 326.828125 301.769531 L 326.828125 238.582031 L 390.007812 238.582031 Z M 347.890625 280.707031 L 368.953125 280.707031 L 368.953125 259.644531 L 347.890625 259.644531 Z M 347.890625 280.707031 " style=" stroke:none;fill-rule:nonzero;fill:rgb(0%,0%,0%);fill-opacity:1;" />
<path d="M 305.765625 386.011719 L 242.582031 386.011719 L 242.582031 322.832031 L 305.765625 322.832031 Z M 263.644531 364.949219 L 284.703125 364.949219 L 284.703125 343.894531 L 263.644531 343.894531 Z M 263.644531 364.949219 " style=" stroke:none;fill-rule:nonzero;fill:rgb(0%,0%,0%);fill-opacity:1;" />
<path d="M 390.007812 386.011719 L 326.828125 386.011719 L 326.828125 322.832031 L 390.007812 322.832031 Z M 347.890625 364.949219 L 368.953125 364.949219 L 368.953125 343.894531 L 347.890625 343.894531 Z M 347.890625 364.949219 " style=" stroke:none;fill-rule:nonzero;fill:rgb(0%,0%,0%);fill-opacity:1;" />
<path d="M 305.765625 470.257812 L 242.582031 470.257812 L 242.582031 407.074219 L 305.765625 407.074219 Z M 263.644531 449.199219 L 284.703125 449.199219 L 284.703125 428.136719 L 263.644531 428.136719 Z M 263.644531 449.199219 " style=" stroke:none;fill-rule:nonzero;fill:rgb(0%,0%,0%);fill-opacity:1;" />
<path d="M 390.007812 470.257812 L 326.828125 470.257812 L 326.828125 407.074219 L 390.007812 407.074219 Z M 347.890625 449.199219 L 368.953125 449.199219 L 368.953125 428.136719 L 347.890625 428.136719 Z M 347.890625 449.199219 " style=" stroke:none;fill-rule:nonzero;fill:rgb(0%,0%,0%);fill-opacity:1;" />
<path d="M 305.765625 554.507812 L 242.582031 554.507812 L 242.582031 491.320312 L 305.765625 491.320312 Z M 263.644531 533.445312 L 284.703125 533.445312 L 284.703125 512.382812 L 263.644531 512.382812 Z M 263.644531 533.445312 " style=" stroke:none;fill-rule:nonzero;fill:rgb(0%,0%,0%);fill-opacity:1;" />
<path d="M 390.007812 554.507812 L 326.828125 554.507812 L 326.828125 491.320312 L 390.007812 491.320312 Z M 347.890625 533.445312 L 368.953125 533.445312 L 368.953125 512.382812 L 347.890625 512.382812 Z M 347.890625 533.445312 " style=" stroke:none;fill-rule:nonzero;fill:rgb(0%,0%,0%);fill-opacity:1;" />
<path d="M 516.378906 301.769531 L 453.195312 301.769531 L 453.195312 238.582031 L 516.378906 238.582031 Z M 474.257812 280.707031 L 495.316406 280.707031 L 495.316406 259.644531 L 474.257812 259.644531 Z M 474.257812 280.707031 " style=" stroke:none;fill-rule:nonzero;fill:rgb(0%,0%,0%);fill-opacity:1;" />
<path d="M 590.097656 301.769531 L 526.910156 301.769531 L 526.910156 238.582031 L 590.097656 238.582031 Z M 547.972656 280.707031 L 569.035156 280.707031 L 569.035156 259.644531 L 547.972656 259.644531 Z M 547.972656 280.707031 " style=" stroke:none;fill-rule:nonzero;fill:rgb(0%,0%,0%);fill-opacity:1;" />
<path d="M 516.378906 386.011719 L 453.195312 386.011719 L 453.195312 322.832031 L 516.378906 322.832031 Z M 474.257812 364.949219 L 495.316406 364.949219 L 495.316406 343.894531 L 474.257812 343.894531 Z M 474.257812 364.949219 " style=" stroke:none;fill-rule:nonzero;fill:rgb(0%,0%,0%);fill-opacity:1;" />
<path d="M 590.097656 386.011719 L 526.910156 386.011719 L 526.910156 322.832031 L 590.097656 322.832031 Z M 547.972656 364.949219 L 569.035156 364.949219 L 569.035156 343.894531 L 547.972656 343.894531 Z M 547.972656 364.949219 " style=" stroke:none;fill-rule:nonzero;fill:rgb(0%,0%,0%);fill-opacity:1;" />
<path d="M 516.378906 470.257812 L 453.195312 470.257812 L 453.195312 407.074219 L 516.378906 407.074219 Z M 474.257812 449.199219 L 495.316406 449.199219 L 495.316406 428.136719 L 474.257812 428.136719 Z M 474.257812 449.199219 " style=" stroke:none;fill-rule:nonzero;fill:rgb(0%,0%,0%);fill-opacity:1;" />
<path d="M 590.097656 470.257812 L 526.910156 470.257812 L 526.910156 407.074219 L 590.097656 407.074219 Z M 547.972656 449.199219 L 569.035156 449.199219 L 569.035156 428.136719 L 547.972656 428.136719 Z M 547.972656 449.199219 " style=" stroke:none;fill-rule:nonzero;fill:rgb(0%,0%,0%);fill-opacity:1;" />
<path d="M 516.378906 554.507812 L 453.195312 554.507812 L 453.195312 491.320312 L 516.378906 491.320312 Z M 474.257812 533.445312 L 495.316406 533.445312 L 495.316406 512.382812 L 474.257812 512.382812 Z M 474.257812 533.445312 " style=" stroke:none;fill-rule:nonzero;fill:rgb(0%,0%,0%);fill-opacity:1;" />
<path d="M 590.097656 554.507812 L 526.910156 554.507812 L 526.910156 491.320312 L 590.097656 491.320312 Z M 547.972656 533.445312 L 569.035156 533.445312 L 569.035156 512.382812 L 547.972656 512.382812 Z M 547.972656 533.445312 " style=" stroke:none;fill-rule:nonzero;fill:rgb(0%,0%,0%);fill-opacity:1;" />
</g>
</svg>