<?xml version="1.0" encoding="utf-8"?>
<!-- Generator: Adobe Illustrator 19.0.0, SVG Export Plug-In . SVG Version: 6.00 Build 0)  -->
<svg version="1.1"
	 id="svg2" xmlns:rdf="http://www.w3.org/1999/02/22-rdf-syntax-ns#" xmlns:svg="http://www.w3.org/2000/svg" xmlns:dc="http://purl.org/dc/elements/1.1/" xmlns:cc="http://creativecommons.org/ns#"
	 xmlns="http://www.w3.org/2000/svg" xmlns:xlink="http://www.w3.org/1999/xlink" x="0px" y="0px" viewBox="-333 339.8 132.3 120.5"
	 style="enable-background:new -333 339.8 132.3 120.5;" xml:space="preserve">
<style type="text/css">
	.st0{clip-path:url(#SVGID_2_);}
	.st1{fill:url(#path54_1_);}
	.st2{fill:#B60A06;}
</style>
<g>
	<g id="g38">
		<g>
			<g>
				<g>
					<defs>
						<path id="SVGID_1_" d="M-230.7,454.8L-230.7,454.8c12.1-8.4,7.6-20.9-1.2-29.5c1.3,0.5,2.5,0.9,3.9,1.3
							c9.5,2.8,20.8,0.5,23.1-12.5l0,0c2.7-15.3-10.7-20.8-23.7-19.9c-4.4,0.3-9.2,1.2-13.9,2.4c6.8-2.1,13.6-4.8,18.4-8
							c8.3-5.5,13.7-15.6,5.2-25.6l0,0c-10-11.9-22.8-5.1-30.5,5.3c-1.3,1.9-2.7,4-4,6.3c0.9-2.4,1.6-4.8,2.3-7.1
							c3.1-12.7,0.1-26.8-15.5-26.8l0,0c-13.2,0-17.3,10.7-16.3,20.5c0.7,5.9,2.9,12.7,5.7,19.3c-2.1-4.4-4.5-8.7-7.1-12.1
							c-7.7-10.5-20.5-17.3-30.5-5.3l0,0c-8.5,10.1-2.9,20.1,5.2,25.6c4.8,3.2,11.6,5.9,18.4,8c-4.7-1.2-9.5-2-13.9-2.4
							c-13.1-0.9-26.4,4.5-23.7,19.9l0,0c2.3,12.9,13.6,15.2,23.1,12.5c1.7-0.5,3.6-1.2,5.5-2c-0.9,0.7-1.7,1.5-2.5,2.1
							c-10.8,9.3-17.9,23.2-5.9,30.9l0,0c10.1,6.7,20.5-0.5,26.1-9.6l0.1-0.3l0,0l0.1-0.3l0.1-0.3l0,0l0.1-0.3l0.1-0.3l0.1-0.3
							l0.3-0.5l0.1-0.3c0.3-0.5,0.5-1.2,0.8-1.7l0.1-0.3l0.3-0.7l0.1-0.3c0.1-0.4,0.3-0.8,0.5-1.2l0.1-0.3l0.1-0.3l0,0l0.1-0.3
							l0.1-0.3V440l0.1-0.1l0.1-0.3l0.1-0.3l0,0l0.1-0.3l0.1-0.3v-0.1l0.1-0.1l0.1-0.3l0.1-0.3l0.1-0.3l0.1-0.3v-0.1l0.1-0.1
							l0.1-0.3l0.1-0.3l0,0l0.1-0.3l0.1-0.3l0.1-0.3l0.1-0.3l0.1-0.3l0,0l0.1-0.3l0.1-0.3v-0.1v-0.1l0.1-0.3l0.1-0.3l0,0l0.1-0.3
							l0.1-0.3v-0.1v-0.1l0.1-0.3l0.1-0.3l0,0l0.1-0.3l0.1-0.3v-0.1v-0.1l0.1-0.3l0.1-0.3l0,0l0.1-0.3l0.1-0.3v-0.1V430l0.1-0.3
							l0.1-0.3l0,0l0,0l0.1-0.3l0,0l0,0l0,0l0,0l0,0l0,0l0,0l0,0l0,0l0,0l0,0l0,0l0,0l0,0l0,0l0,0v1l0,0l0,0l0,0l0,0l0,0l0,0l0,0
							l0,0l0,0l0,0l0,0l0,0l0,0l0,0l0,0l0,0l0,0l0,0l0,0l0,0l0,0l0,0l0,0l0,0l0,0l0,0l0,0l0,0l0,0l0,0l0,0l0,0l0,0l0,0l0,0l0,0l0,0
							l0,0l0,0l0,0l0,0l0,0l0,0c3.7-13.1,2.8-20.8,2.8-20.8l-5.1,0.8c0,0,1.6-5.7,5.1-7.1c0.3-1.3,0.5-3.6,0.5-6
							c0-4.7,0-8.9,4.7-7.7c3.9,0.9,2.3,6.8-0.5,10.8c-0.7,0.8-1.7,1.9-2.7,2.7c0.4,0,0.8,0.1,1.2,0.3c5.2,2,0.9,11.9,5.9,28.5l0,0
							l0,0l0.3,0.8l0,0l0.3,0.8l0,0C-256.8,441.7-249.9,464.4-230.7,454.8"/>
					</defs>
					<clipPath id="SVGID_2_">
						<use xlink:href="#SVGID_1_"  style="overflow:visible;"/>
					</clipPath>
					<g id="g40" class="st0">
						<g id="g46">
							
								<radialGradient id="path54_1_" cx="-971.121" cy="241.9284" r="0.6897" gradientTransform="matrix(165.7297 0 0 -165.7297 160676.7344 40495.2148)" gradientUnits="userSpaceOnUse">
								<stop  offset="0" style="stop-color:#FFCC00"/>
								<stop  offset="1" style="stop-color:#F59B00"/>
							</radialGradient>
							<path id="path54" class="st1" d="M-230.7,454.8L-230.7,454.8c12.1-8.4,7.6-20.9-1.2-29.5c1.3,0.5,2.5,0.9,3.9,1.3
								c9.5,2.8,20.8,0.5,23.1-12.5l0,0c2.7-15.3-10.7-20.8-23.7-19.9c-4.4,0.3-9.2,1.2-13.9,2.4c6.8-2.1,13.6-4.8,18.4-8
								c8.3-5.5,13.7-15.6,5.2-25.6l0,0c-10-11.9-22.8-5.1-30.5,5.3c-1.3,1.9-2.7,4-4,6.3c0.9-2.4,1.6-4.8,2.3-7.1
								c3.1-12.7,0.1-26.8-15.5-26.8l0,0c-13.2,0-17.3,10.7-16.3,20.5c0.7,5.9,2.9,12.7,5.7,19.3c-2.1-4.4-4.5-8.7-7.1-12.1
								c-7.7-10.5-20.5-17.3-30.5-5.3l0,0c-8.5,10.1-2.9,20.1,5.2,25.6c4.8,3.2,11.6,5.9,18.4,8c-4.7-1.2-9.5-2-13.9-2.4
								c-13.1-0.9-26.4,4.5-23.7,19.9l0,0c2.3,12.9,13.6,15.2,23.1,12.5c1.7-0.5,3.6-1.2,5.5-2c-0.9,0.7-1.7,1.5-2.5,2.1
								c-10.8,9.3-17.9,23.2-5.9,30.9l0,0c10.1,6.7,20.5-0.5,26.1-9.6l0.1-0.3l0,0l0.1-0.3l0.1-0.3l0,0l0.1-0.3l0.1-0.3l0.1-0.3
								l0.3-0.5l0.1-0.3c0.3-0.5,0.5-1.2,0.8-1.7l0.1-0.3l0.3-0.7l0.1-0.3c0.1-0.4,0.3-0.8,0.5-1.2l0.1-0.3l0.1-0.3l0,0l0.1-0.3
								l0.1-0.3V440l0.1-0.1l0.1-0.3l0.1-0.3l0,0l0.1-0.3l0.1-0.3v-0.1l0.1-0.1l0.1-0.3l0.1-0.3l0.1-0.3l0.1-0.3v-0.1l0.1-0.1
								l0.1-0.3l0.1-0.3l0,0l0.1-0.3l0.1-0.3l0.1-0.3l0.1-0.3l0.1-0.3l0,0l0.1-0.3l0.1-0.3v-0.1v-0.1l0.1-0.3l0.1-0.3l0,0l0.1-0.3
								l0.1-0.3v-0.1v-0.1l0.1-0.3l0.1-0.3l0,0l0.1-0.3l0.1-0.3v-0.1v-0.1l0.1-0.3l0.1-0.3l0,0l0.1-0.3l0.1-0.3v-0.1V430l0.1-0.3
								l0.1-0.3l0,0l0,0l0.1-0.3l0,0l0,0l0,0l0,0l0,0l0,0l0,0l0,0l0,0l0,0l0,0l0,0l0,0l0,0l0,0l0,0v1l0,0l0,0l0,0l0,0l0,0l0,0l0,0
								l0,0l0,0l0,0l0,0l0,0l0,0l0,0l0,0l0,0l0,0l0,0l0,0l0,0l0,0l0,0l0,0l0,0l0,0l0,0l0,0l0,0l0,0l0,0l0,0l0,0l0,0l0,0l0,0l0,0l0,0
								l0,0l0,0l0,0l0,0l0,0l0,0c3.7-13.1,2.8-20.8,2.8-20.8l-5.1,0.8c0,0,1.6-5.7,5.1-7.1c0.3-1.3,0.5-3.6,0.5-6
								c0-4.7,0-8.9,4.7-7.7c3.9,0.9,2.3,6.8-0.5,10.8c-0.7,0.8-1.7,1.9-2.7,2.7c0.4,0,0.8,0.1,1.2,0.3c5.2,2,0.9,11.9,5.9,28.5l0,0
								l0,0l0.3,0.8l0,0l0.3,0.8l0,0C-256.8,441.7-249.9,464.4-230.7,454.8"/>
						</g>
					</g>
				</g>
			</g>
		</g>
	</g>
	<path id="path56" class="st2" d="M-266.5,351.2L-266.5,351.2c4.9,0,5.9,4.5,4.9,8.5c-1.1,4.1-4.1,9.2-4.9,11.3
		c-1.1-2.8-4.5-8.9-5.1-13.3C-272,354.5-270.7,351.2-266.5,351.2"/>
	<path id="path58" class="st2" d="M-306.8,369.7L-306.8,369.7c3.2-3.7,7.2-1.6,9.6,1.7c2.5,3.5,4.4,8.9,5.5,11.1
		c-2.9-0.9-9.9-2.3-13.5-4.7C-307.7,376-309.5,372.9-306.8,369.7"/>
	<path id="path60" class="st2" d="M-318.4,412.4L-318.4,412.4c-0.8-4.8,3.3-6.5,7.5-6.3c4.3,0.3,9.7,2.4,12,2.9
		c-2.5,1.6-8,6.1-12.3,7.3C-314.1,417.2-317.7,416.5-318.4,412.4"/>
	<path id="path62" class="st2" d="M-301.9,448.8L-301.9,448.8c-3.7-2.4-1.6-6.8,1.9-9.7c3.5-3.1,9.2-5.9,11.3-7.3
		c-1.1,3.1-2.4,10.1-4.9,14.1C-295.3,448.6-298.5,450.9-301.9,448.8"/>
	<path id="path64" class="st2" d="M-226.8,369.7L-226.8,369.7c-3.2-3.7-7.2-1.6-9.6,1.7c-2.5,3.5-4.4,8.9-5.5,11.1
		c2.9-0.9,9.9-2.3,13.5-4.7C-225.9,376-224.1,372.9-226.8,369.7"/>
	<path id="path66" class="st2" d="M-215.1,412.4L-215.1,412.4c0.8-4.8-3.3-6.5-7.5-6.3c-4.3,0.3-9.7,2.4-12,2.9
		c2.5,1.6,8,6.1,12.3,7.3C-219.5,417.2-215.9,416.5-215.1,412.4"/>
	<path id="path68" class="st2" d="M-236.5,446.4L-236.5,446.4c4-2.8,2.3-7.1-0.8-9.7c-3.2-2.8-8.5-5.2-10.5-6.4
		c0.7,2.9,1.3,10,3.5,13.9C-242.9,446.6-239.9,448.8-236.5,446.4"/>
</g>
</svg>
