<?xml version="1.0" encoding="UTF-8"?>
<!DOCTYPE svg PUBLIC "-//W3C//DTD SVG 1.1//EN" "http://www.w3.org/Graphics/SVG/1.1/DTD/svg11.dtd">
<!-- Creator: CorelDRAW X6 -->
<svg xmlns="http://www.w3.org/2000/svg" xml:space="preserve" width="28.0793mm" height="14.5193mm" version="1.1" style="shape-rendering:geometricPrecision; text-rendering:geometricPrecision; image-rendering:optimizeQuality; fill-rule:evenodd; clip-rule:evenodd"
viewBox="0 0 2786 1440"
 xmlns:xlink="http://www.w3.org/1999/xlink">
 <defs>
  <style type="text/css">
   <![CDATA[
    .fil4 {fill:none}
    .fil3 {fill:#B31B1B}
    .fil1 {fill:#4D4D4D;fill-rule:nonzero}
    .fil0 {fill:#B31B1B;fill-rule:nonzero}
    .fil2 {fill:url(#id0)}
   ]]>
  </style>
  <radialGradient id="id0" gradientUnits="objectBoundingBox" cx="50.0003%" cy="50%" r="50.0003%" fx="50.0003%" fy="50%">
   <stop offset="0" style="stop-color:#FCCA03"/>
   <stop offset="1" style="stop-color:#F59D0E"/>
  </radialGradient>
 </defs>
 <g id="Layer_x0020_1">
  <metadata id="CorelCorpID_0Corel-Layer"/>
  <g id="_764752208">
   <path class="fil0" d="M235 883c2,-8 2,-13 0,-15 -2,-2 -6,-3 -13,-3 -6,0 -12,0 -18,1 -7,1 -13,2 -20,4 -7,2 -13,4 -20,7 -7,3 -13,6 -18,10 -5,3 -11,7 -16,12 -6,4 -11,9 -15,14 -5,5 -8,10 -11,15 -3,5 -4,11 -4,17 0,8 2,13 7,17 5,4 9,5 14,5 3,0 6,-1 8,-3 2,-2 4,-4 5,-6 2,-4 5,-7 8,-9 3,-2 7,-3 12,-3 5,0 9,2 12,5 3,3 5,8 5,13 0,8 -3,15 -10,20 -7,5 -15,8 -26,8 -7,0 -13,-1 -20,-3 -6,-2 -12,-6 -17,-10 -5,-4 -9,-10 -12,-16 -3,-7 -5,-14 -5,-23 0,-12 3,-24 8,-35 5,-12 14,-22 27,-32 9,-7 19,-12 30,-15 11,-3 23,-6 37,-7 14,-1 29,-2 45,-2 16,0 34,0 52,0 7,0 14,0 22,0 8,0 16,0 23,1 8,1 16,3 23,5 8,2 15,6 22,11 8,6 14,13 18,21 4,8 6,18 6,28 0,9 -2,18 -6,28 -4,10 -10,18 -17,26 -8,8 -18,14 -30,19 -12,5 -26,8 -42,8 -3,0 -6,0 -10,0 -4,0 -8,0 -12,0 -4,0 -8,-1 -12,-1 -4,-1 -8,-1 -11,-2l-18 66c-1,3 -2,7 -3,12 -1,5 -3,9 -6,13 -3,4 -7,8 -13,11 -5,3 -13,4 -22,4 -6,0 -10,-1 -13,-1 -3,0 -4,-2 -4,-4 0,-2 1,-7 3,-12 2,-6 5,-14 8,-25l48 -172zm24 88c0,2 0,4 1,5 1,1 3,2 6,3 3,1 6,2 9,2 4,0 7,1 11,1 14,0 25,-3 33,-9 8,-6 14,-14 18,-22 4,-8 7,-16 8,-23 1,-7 2,-12 2,-14 0,-7 -1,-14 -4,-20 -2,-6 -6,-12 -10,-16 -4,-5 -9,-8 -15,-11 -6,-3 -12,-4 -19,-4 -3,0 -6,0 -8,1 -2,0 -4,2 -5,5l-29 103zm240 89c1,1 1,2 1,4 -2,3 -5,7 -9,12 -4,4 -9,8 -15,12 -6,4 -13,7 -21,10 -8,3 -16,4 -26,4 -13,0 -23,-4 -31,-11 -8,-7 -12,-17 -12,-31 0,-7 1,-14 2,-23 2,-8 4,-16 8,-25 3,-8 8,-17 14,-25 6,-8 13,-16 21,-23 9,-8 19,-14 30,-19 11,-5 21,-7 33,-7 10,0 18,2 22,7 4,5 7,11 7,18 0,10 -3,20 -9,27 -6,8 -14,15 -25,21 -10,6 -20,10 -30,12 -9,2 -18,4 -25,4 -1,2 -1,5 -2,9 -1,4 -1,9 -1,14 0,6 2,12 5,17 3,5 8,7 15,7 9,0 17,-2 24,-6 7,-4 12,-9 16,-13 1,-1 2,-2 3,-1l6 4zm-63 -45c3,0 8,-1 15,-3 7,-2 13,-6 19,-12 3,-3 6,-7 8,-13 2,-6 4,-12 4,-18 0,-3 -1,-6 -2,-9 -1,-3 -4,-4 -8,-4 -3,0 -7,2 -11,6 -4,4 -7,9 -10,14 -3,6 -6,12 -9,19 -2,7 -4,13 -6,19zm258 -79c3,0 4,1 3,4 -1,4 -4,10 -6,17 -3,7 -5,15 -8,23 -3,8 -5,15 -8,22 -2,7 -4,12 -5,15 0,1 -1,5 -3,10 -1,5 -3,11 -5,17 -2,6 -3,11 -5,17 -1,5 -2,8 -2,10 0,3 1,4 4,4 1,0 3,1 5,3 2,2 2,4 1,7 -1,3 -4,5 -9,8 -5,3 -14,5 -27,7 -6,1 -10,0 -12,-3 -2,-3 -3,-6 -3,-9 0,-1 0,-3 1,-4 0,-2 1,-4 2,-8 1,-3 2,-8 4,-14 2,-6 4,-13 8,-22l-3 -2c-4,6 -8,12 -13,19 -5,7 -10,14 -17,20 -6,6 -13,12 -20,16 -7,4 -16,7 -24,7 -2,0 -5,-1 -8,-2 -3,-2 -6,-4 -8,-7 -3,-3 -5,-6 -7,-9 -2,-3 -3,-7 -3,-11 0,-8 1,-16 4,-26 2,-10 6,-19 10,-29 4,-10 10,-20 16,-29 6,-9 13,-18 20,-25 7,-7 15,-13 23,-17 8,-4 17,-7 26,-7 8,0 15,1 19,4 4,3 8,6 10,9l6 -11c2,-3 4,-4 7,-4l26 0zm-123 123c0,4 1,7 2,9 1,2 4,2 7,2 2,0 6,-3 11,-8 5,-5 10,-11 16,-18 5,-7 10,-14 15,-21 5,-7 8,-13 10,-16 2,-5 4,-11 6,-17 2,-6 3,-13 3,-19 0,-4 -2,-8 -5,-12 -4,-3 -7,-5 -11,-5 -9,0 -18,8 -28,25 -9,17 -16,32 -20,46 -4,14 -5,25 -5,34zm227 5c1,1 2,2 0,4 -1,2 -4,5 -7,8 -4,4 -8,7 -13,11 -5,3 -11,7 -18,9 -7,3 -14,4 -22,4 -4,0 -9,-1 -13,-2 -4,-2 -8,-4 -12,-8 -4,-3 -7,-8 -9,-13 -2,-5 -4,-11 -4,-18 0,-11 2,-24 7,-38 5,-14 11,-27 19,-40 8,-12 18,-23 30,-31 11,-8 24,-13 37,-13 5,0 10,1 14,2 4,1 7,3 9,5 2,2 4,4 5,7 1,2 1,4 1,6 0,6 -2,11 -6,15 -4,4 -7,7 -11,7 -8,0 -13,-3 -15,-10 -1,-3 -2,-6 -4,-8 -2,-2 -4,-4 -8,-4 -3,0 -6,2 -9,7 -2,4 -5,10 -9,18 -2,6 -4,11 -6,16 -2,5 -3,10 -5,15 -1,5 -2,11 -3,17 -1,6 -1,13 -1,21 0,6 1,11 2,16 2,5 6,7 12,7 6,0 12,-2 18,-5 6,-3 10,-6 13,-9 1,-2 2,-2 3,-1l4 4zm76 36c-5,0 -11,-1 -17,-3 -6,-2 -11,-5 -16,-10 -5,-4 -9,-10 -12,-18 -3,-7 -5,-16 -5,-27 0,-15 2,-30 7,-45 5,-15 12,-28 23,-39 8,-8 16,-14 25,-17 9,-3 18,-5 28,-5 5,0 10,1 17,2 6,1 12,4 17,8 5,4 10,9 13,17 4,7 5,16 5,28 0,5 -1,12 -2,19 -1,7 -3,15 -5,23 -2,8 -6,16 -9,23 -4,8 -9,15 -15,21 -7,8 -15,14 -24,17 -9,3 -19,5 -31,5zm-5 -22c3,0 6,-1 9,-2 3,-1 6,-3 9,-6 3,-3 6,-7 10,-11 3,-5 7,-11 11,-18 3,-5 6,-11 9,-18 3,-6 5,-13 7,-19 2,-6 4,-12 5,-17 1,-5 2,-10 2,-13 0,-4 -1,-8 -3,-11 -2,-3 -6,-5 -11,-5 -7,0 -14,3 -20,10 -6,7 -13,18 -22,33 -6,11 -11,22 -14,33 -3,11 -4,20 -4,28 0,4 1,7 3,11 2,4 5,5 10,5zm208 -15c1,1 2,2 0,4 -1,2 -4,5 -7,8 -4,4 -8,7 -13,11 -5,3 -11,7 -18,9 -7,3 -14,4 -22,4 -4,0 -9,-1 -13,-2 -4,-2 -8,-4 -12,-8 -4,-3 -7,-8 -9,-13 -2,-5 -4,-11 -4,-18 0,-11 2,-24 7,-38 5,-14 11,-27 19,-40 8,-12 18,-23 30,-31 11,-8 24,-13 37,-13 5,0 10,1 14,2 4,1 7,3 9,5 2,2 4,4 5,7 1,2 1,4 1,6 0,6 -2,11 -6,15 -4,4 -7,7 -11,7 -8,0 -13,-3 -15,-10 -1,-3 -2,-6 -4,-8 -2,-2 -4,-4 -8,-4 -3,0 -6,2 -9,7 -2,4 -5,10 -9,18 -2,6 -4,11 -6,16 -2,5 -3,10 -5,15 -1,5 -2,11 -3,17 -1,6 -1,13 -1,21 0,6 1,11 2,16 2,5 6,7 12,7 6,0 12,-2 18,-5 6,-3 10,-6 13,-9 1,-2 2,-2 3,-1l4 4zm81 -40c7,1 15,1 23,-3 8,-3 15,-8 22,-14 7,-6 12,-12 16,-19 4,-7 6,-13 6,-18 0,-2 -1,-4 -2,-6 -1,-2 -4,-3 -6,-3 -2,0 -6,1 -9,4 -4,2 -8,5 -12,8 -4,3 -8,6 -11,9 -3,3 -5,5 -7,7 -2,2 -4,4 -6,7 -2,2 -4,5 -5,7l-9 20zm-63 73c-1,0 -2,-1 -3,-2 0,-1 0,-2 0,-4l92 -245 43 -1c2,0 3,1 3,2 0,2 0,3 -1,5l-56 127 3 1c3,-4 7,-8 12,-13 5,-5 10,-10 16,-14 6,-4 12,-8 18,-11 6,-3 13,-4 19,-4 7,0 13,2 18,6 5,4 7,10 7,18 0,8 -3,15 -8,22 -5,7 -12,13 -19,18 -7,5 -15,10 -23,14 -8,4 -14,7 -19,9l0 3 28 42c3,5 6,8 8,10 2,2 4,3 6,3 1,0 4,1 6,2 3,1 4,3 4,5 0,2 -2,4 -7,6 -4,2 -13,4 -26,5 -10,1 -18,0 -23,-4 -5,-4 -9,-10 -13,-18l-16 -37c-1,-3 -3,-5 -5,-5 -2,-1 -4,-1 -7,-1l-21 60c0,2 -2,3 -6,3l-33 0zm207 -167c1,-5 2,-11 3,-19 1,-8 3,-15 4,-23 1,-8 3,-15 4,-22 1,-7 2,-11 3,-14 1,-4 4,-7 8,-9 4,-1 9,-2 14,-2 10,0 15,4 15,13 0,2 -1,6 -4,11 -3,5 -6,11 -10,19 -4,7 -8,15 -13,24 -5,8 -9,17 -13,25l-11 -3zm42 170c-13,0 -23,-2 -30,-6 -7,-4 -10,-10 -10,-16 0,-6 2,-10 5,-13 3,-3 7,-5 11,-5 5,0 9,2 12,5 3,3 6,7 8,13 1,3 2,5 4,7 2,2 4,3 6,3 11,0 17,-8 17,-25 0,-3 0,-6 -1,-8 -1,-2 -2,-5 -4,-8 -2,-3 -3,-5 -6,-9 -2,-3 -4,-7 -7,-11 -3,-4 -5,-8 -7,-12 -2,-3 -4,-6 -5,-9 -1,-3 -2,-6 -3,-8 -1,-3 -1,-6 -1,-9 0,-6 1,-13 4,-19 3,-6 7,-11 12,-16 5,-5 12,-8 19,-11 8,-3 17,-4 27,-4 4,0 7,0 11,1 4,1 7,2 10,4 3,2 5,4 7,7 2,3 3,7 3,11 0,6 -1,10 -4,14 -3,3 -7,5 -12,5 -4,0 -8,-1 -11,-3 -3,-2 -5,-6 -6,-12 0,-3 -1,-5 -3,-8 -1,-2 -3,-4 -6,-4 -4,0 -7,1 -9,3 -3,2 -4,8 -4,17 0,3 1,7 2,10 1,3 3,7 5,10 2,3 4,6 7,9 2,3 4,5 6,7 6,7 10,14 11,19 2,5 2,12 2,19 0,7 -1,14 -4,21 -3,6 -7,12 -12,17 -5,5 -12,9 -20,11 -8,3 -17,4 -27,4z"/>
   <path class="fil0" d="M1611 1113c-9,0 -19,-1 -28,-4 -10,-2 -19,-7 -27,-13 -8,-6 -15,-14 -21,-24 -6,-10 -9,-23 -9,-38 0,-11 0,-22 2,-34 2,-12 6,-25 11,-37 5,-12 11,-25 19,-37 7,-12 16,-24 27,-34 10,-10 19,-18 28,-24 9,-6 17,-10 24,-13 7,-3 14,-5 20,-6 6,-1 11,-1 14,-1 10,0 19,1 27,4 8,3 16,6 22,11 6,5 11,10 14,16 3,6 5,12 6,19 0,3 0,5 -1,8 -1,3 -2,5 -4,7 -2,2 -4,4 -7,5 -3,1 -6,2 -9,2 -6,0 -11,-2 -15,-5 -4,-4 -7,-8 -7,-14 0,-3 0,-7 1,-10 1,-3 1,-6 1,-7 0,-8 -2,-14 -7,-19 -4,-5 -12,-7 -23,-7 -4,0 -9,1 -13,3 -5,2 -9,6 -14,10 -5,4 -9,9 -14,15 -4,6 -9,12 -12,20 -6,11 -11,23 -16,35 -5,13 -9,25 -12,37 -3,12 -6,23 -8,34 -2,11 -3,19 -2,26 1,20 5,34 12,43 7,9 20,14 39,14 6,0 12,-1 18,-3 6,-2 11,-4 16,-7 5,-3 9,-6 12,-9 3,-3 6,-7 8,-10 2,-3 3,-7 5,-10 1,-4 2,-7 3,-10 3,-5 6,-8 11,-8 4,0 6,1 8,3 1,2 2,4 2,7 0,2 -1,5 -3,9 -2,4 -5,8 -8,13 -4,5 -8,10 -14,15 -6,5 -12,10 -19,14 -7,4 -16,8 -24,10 -9,3 -19,4 -29,4z"/>
   <path class="fil0" d="M1886 937c3,0 4,1 3,4 -1,4 -4,10 -6,17 -3,7 -5,15 -8,23 -3,8 -5,15 -8,22 -2,7 -4,12 -5,15 0,1 -1,5 -3,10 -1,5 -3,11 -5,17 -2,6 -3,11 -5,17 -1,5 -2,8 -2,10 0,3 1,4 4,4 1,0 3,1 5,3 2,2 2,4 1,7 -1,3 -4,5 -9,8 -5,3 -14,5 -27,7 -6,1 -10,0 -12,-3 -2,-3 -3,-6 -3,-9 0,-1 0,-3 1,-4 0,-2 1,-4 2,-8 1,-3 2,-8 4,-14 2,-6 4,-13 8,-22l-3 -2c-4,6 -8,12 -13,19 -5,7 -10,14 -17,20 -6,6 -13,12 -20,16 -7,4 -16,7 -24,7 -2,0 -5,-1 -8,-2 -3,-2 -6,-4 -8,-7 -3,-3 -5,-6 -7,-9 -2,-3 -3,-7 -3,-11 0,-8 1,-16 4,-26 2,-10 6,-19 10,-29 4,-10 10,-20 16,-29 6,-9 13,-18 20,-25 7,-7 15,-13 23,-17 8,-4 17,-7 26,-7 8,0 15,1 19,4 4,3 8,6 10,9l6 -11c2,-3 4,-4 7,-4l26 0zm-123 123c0,4 1,7 2,9 1,2 4,2 7,2 2,0 6,-3 11,-8 5,-5 10,-11 16,-18 5,-7 10,-14 15,-21 5,-7 8,-13 10,-16 2,-5 4,-11 6,-17 2,-6 3,-13 3,-19 0,-4 -2,-8 -5,-12 -4,-3 -7,-5 -11,-5 -9,0 -18,8 -28,25 -9,17 -16,32 -20,46 -4,14 -5,25 -5,34z"/>
   <path class="fil0" d="M1980 950l38 0c2,0 3,1 2,3l-3 10c-1,2 -2,3 -5,3l-38 0 -31 82c-1,3 -2,6 -3,10 -1,4 -2,7 -2,9 0,2 1,4 2,5 1,1 3,2 6,2 1,0 3,0 5,1 2,1 4,1 5,2 1,1 2,2 2,4 0,2 -2,3 -5,5 -3,2 -8,4 -14,6 -7,2 -16,5 -28,8 -3,1 -6,1 -8,0 -2,-1 -4,-2 -6,-3 -2,-1 -3,-3 -4,-5 -1,-2 -1,-4 -1,-5 0,-4 0,-8 1,-12 1,-4 2,-8 3,-12l34 -99 -29 0c-2,0 -3,-1 -2,-4l2 -10c1,-2 2,-3 4,-3l31 0 20 -54c1,-2 2,-3 3,-4 1,-1 5,-1 9,-1 7,0 13,-1 18,-1 5,0 9,0 13,0 1,0 2,1 3,2 1,2 1,3 0,4l-24 53z"/>
   <path class="fil0" d="M2110 1060c1,1 1,2 1,4 -2,3 -5,7 -9,12 -4,4 -9,8 -15,12 -6,4 -13,7 -21,10 -8,3 -16,4 -26,4 -13,0 -23,-4 -31,-11 -8,-7 -12,-17 -12,-31 0,-7 1,-14 2,-23 2,-8 4,-16 8,-25 3,-8 8,-17 14,-25 6,-8 13,-16 21,-23 9,-8 19,-14 30,-19 11,-5 21,-7 33,-7 10,0 18,2 22,7 4,5 7,11 7,18 0,10 -3,20 -9,27 -6,8 -14,15 -25,21 -10,6 -20,10 -30,12 -9,2 -18,4 -25,4 -1,2 -1,5 -2,9 -1,4 -1,9 -1,14 0,6 2,12 5,17 3,5 8,7 15,7 9,0 17,-2 24,-6 7,-4 12,-9 16,-13 1,-1 2,-2 3,-1l6 4zm-63 -45c3,0 8,-1 15,-3 7,-2 13,-6 19,-12 3,-3 6,-7 8,-13 2,-6 4,-12 4,-18 0,-3 -1,-6 -2,-9 -1,-3 -4,-4 -8,-4 -3,0 -7,2 -11,6 -4,4 -7,9 -10,14 -3,6 -6,12 -9,19 -2,7 -4,13 -6,19z"/>
   <path class="fil0" d="M2151 1097c-3,0 -4,-1 -3,-3l18 -60c1,-5 3,-11 5,-18 2,-7 4,-13 6,-20 2,-6 3,-12 5,-17 1,-5 2,-9 2,-10 0,-2 -1,-4 -2,-5 -1,-1 -3,-2 -5,-2 0,0 -2,0 -4,-1 -2,-1 -3,-2 -2,-4 0,-2 3,-4 7,-7 4,-3 13,-7 26,-11 3,-1 6,-1 9,-1 2,1 4,2 6,4 1,2 3,4 3,6 1,2 1,4 1,6 0,3 -2,9 -5,18 -3,9 -7,19 -11,31l4 2c2,-5 5,-12 9,-19 4,-7 8,-15 13,-22 5,-7 11,-13 17,-18 6,-5 13,-7 19,-7 5,0 10,2 15,6 4,4 7,9 7,15 0,3 -1,6 -2,9 -1,3 -3,6 -4,8 -2,2 -4,4 -5,5 -2,1 -4,2 -5,2 -5,0 -9,-1 -12,-3 -1,-1 -3,-2 -4,-3 -1,-1 -3,-1 -6,-1 -3,0 -6,2 -10,5 -4,3 -7,7 -11,12 -4,5 -7,10 -11,16 -3,6 -6,11 -8,16 -2,4 -4,9 -6,15 -2,5 -4,12 -6,19l-12 38c-1,2 -2,3 -5,3l-32 0z"/>
   <path class="fil0" d="M2401 1060c1,1 1,2 1,4 -2,3 -5,7 -9,12 -4,4 -9,8 -15,12 -6,4 -13,7 -21,10 -8,3 -16,4 -26,4 -13,0 -23,-4 -31,-11 -8,-7 -12,-17 -12,-31 0,-7 1,-14 2,-23 2,-8 4,-16 8,-25 3,-8 8,-17 14,-25 6,-8 13,-16 21,-23 9,-8 19,-14 30,-19 11,-5 21,-7 33,-7 10,0 18,2 22,7 4,5 7,11 7,18 0,10 -3,20 -9,27 -6,8 -14,15 -25,21 -10,6 -20,10 -30,12 -9,2 -18,4 -25,4 -1,2 -1,5 -2,9 -1,4 -1,9 -1,14 0,6 2,12 5,17 3,5 8,7 15,7 9,0 17,-2 24,-6 7,-4 12,-9 16,-13 1,-1 2,-2 3,-1l6 4zm-63 -45c3,0 8,-1 15,-3 7,-2 13,-6 19,-12 3,-3 6,-7 8,-13 2,-6 4,-12 4,-18 0,-3 -1,-6 -2,-9 -1,-3 -4,-4 -8,-4 -3,0 -7,2 -11,6 -4,4 -7,9 -10,14 -3,6 -6,12 -9,19 -2,7 -4,13 -6,19z"/>
   <path class="fil0" d="M2546 1060c1,1 1,2 1,4 -2,3 -5,7 -9,12 -4,4 -9,8 -15,12 -6,4 -13,7 -21,10 -8,3 -16,4 -26,4 -13,0 -23,-4 -31,-11 -8,-7 -12,-17 -12,-31 0,-7 1,-14 2,-23 2,-8 4,-16 8,-25 3,-8 8,-17 14,-25 6,-8 13,-16 21,-23 9,-8 19,-14 30,-19 11,-5 21,-7 33,-7 10,0 18,2 22,7 4,5 7,11 7,18 0,10 -3,20 -9,27 -6,8 -14,15 -25,21 -10,6 -20,10 -30,12 -9,2 -18,4 -25,4 -1,2 -1,5 -2,9 -1,4 -1,9 -1,14 0,6 2,12 5,17 3,5 8,7 15,7 9,0 17,-2 24,-6 7,-4 12,-9 16,-13 1,-1 2,-2 3,-1l6 4zm-63 -45c3,0 8,-1 15,-3 7,-2 13,-6 19,-12 3,-3 6,-7 8,-13 2,-6 4,-12 4,-18 0,-3 -1,-6 -2,-9 -1,-3 -4,-4 -8,-4 -3,0 -7,2 -11,6 -4,4 -7,9 -10,14 -3,6 -6,12 -9,19 -2,7 -4,13 -6,19z"/>
   <path class="fil0" d="M2587 1097c-3,0 -4,-1 -3,-3l18 -60c1,-5 3,-11 5,-18 2,-7 4,-13 6,-20 2,-6 3,-12 5,-17 1,-5 2,-9 2,-10 0,-2 -1,-4 -2,-5 -1,-1 -3,-2 -5,-2 0,0 -2,0 -4,-1 -2,-1 -3,-2 -2,-4 0,-2 3,-4 7,-7 4,-3 13,-7 26,-11 3,-1 6,-1 9,-1 2,1 4,2 6,4 1,2 3,4 3,6 1,2 1,4 1,6 0,3 -2,9 -5,18 -3,9 -7,19 -11,31l4 2c2,-5 5,-12 9,-19 4,-7 8,-15 13,-22 5,-7 11,-13 17,-18 6,-5 13,-7 19,-7 5,0 10,2 15,6 4,4 7,9 7,15 0,3 -1,6 -2,9 -1,3 -3,6 -4,8 -2,2 -4,4 -5,5 -2,1 -4,2 -5,2 -5,0 -9,-1 -12,-3 -1,-1 -3,-2 -4,-3 -1,-1 -3,-1 -6,-1 -3,0 -6,2 -10,5 -4,3 -7,7 -11,12 -4,5 -7,10 -11,16 -3,6 -6,11 -8,16 -2,4 -4,9 -6,15 -2,5 -4,12 -6,19l-12 38c-1,2 -2,3 -5,3l-32 0z"/>
  </g>
  <g id="_764753424">
   <path class="fil1" d="M340 1281c0,1 0,2 0,2 0,1 0,1 0,2 0,4 0,7 1,9 1,3 2,5 4,6 2,2 4,3 7,4 3,1 6,1 9,1 3,0 6,0 9,-1 3,-1 5,-2 8,-4 2,-2 4,-4 5,-7 1,-3 2,-6 2,-9 0,-2 0,-4 -1,-6 -1,-2 -1,-4 -2,-5 -1,-2 -2,-3 -4,-4 -1,-1 -3,-3 -5,-4 -2,-1 -3,-2 -5,-3 -2,-1 -4,-2 -6,-3 -2,-1 -4,-2 -6,-3 -2,-1 -4,-2 -6,-4 -2,-1 -4,-3 -5,-4 -2,-2 -3,-3 -4,-5 -1,-2 -2,-4 -3,-6 -1,-2 -1,-5 -1,-8 0,-3 0,-7 1,-10 1,-3 2,-6 4,-8 2,-2 3,-5 6,-7 2,-2 5,-4 7,-5 3,-1 5,-2 8,-3 3,-1 6,-1 9,-1 1,0 3,0 5,0 2,0 3,0 5,1 2,0 3,1 5,1 1,1 3,1 4,2 1,1 2,1 3,2 1,1 1,2 1,2 0,1 0,2 0,4 0,1 0,3 0,5 0,2 0,4 0,6 0,2 0,4 0,7l-5 0c0,-1 0,-2 0,-3 0,-3 -1,-6 -1,-9 -1,-2 -2,-4 -4,-6 -2,-2 -4,-3 -6,-4 -2,-1 -5,-1 -8,-1 -3,0 -6,0 -8,1 -3,1 -5,2 -7,4 -2,2 -3,4 -4,6 -1,2 -2,5 -2,8 0,2 0,5 1,6 1,2 1,4 3,5 1,2 2,3 4,4 1,1 3,3 5,4 2,1 4,2 6,3 2,1 4,2 6,3 2,1 4,2 6,3 2,1 4,2 6,4 2,1 4,3 5,4 2,2 3,3 4,5 1,2 2,4 3,6 1,2 1,5 1,7 0,4 -1,8 -2,12 -1,3 -3,6 -5,9 -2,3 -4,5 -7,6 -3,2 -5,3 -8,4 -3,1 -6,2 -9,2 -3,0 -6,1 -8,1 -3,0 -6,0 -9,-1 -3,0 -5,-1 -7,-2 -2,-1 -4,-2 -5,-2 -1,-1 -2,-2 -2,-3 0,-2 0,-5 0,-9 0,-4 0,-9 1,-14l5 0zm116 14c0,0 0,0 1,0 0,0 1,0 1,1 0,0 0,0 1,1 0,0 0,0 0,1 0,0 0,0 0,0 -2,3 -4,5 -6,7 -2,2 -4,3 -7,5 -2,1 -5,2 -7,3 -2,1 -5,1 -7,1 -4,0 -7,-1 -11,-2 -3,-2 -6,-4 -8,-7 -2,-3 -4,-6 -5,-10 -1,-4 -2,-8 -2,-12 0,-3 0,-7 1,-10 1,-3 2,-7 3,-10 1,-3 3,-6 5,-9 2,-3 4,-5 7,-7 3,-2 6,-4 9,-5 3,-1 7,-2 10,-2 2,0 5,0 7,1 2,1 4,2 6,3 2,1 3,3 4,5 1,2 1,4 1,6 0,3 -1,6 -3,9 -2,2 -5,5 -9,6 -4,2 -8,3 -13,4 -5,1 -11,2 -17,2l0 1c0,4 0,8 2,11 1,3 3,6 4,9 2,2 4,4 7,6 2,1 5,2 8,2 3,0 6,-1 9,-2 3,-1 6,-4 9,-7zm-9 -39c0,-1 0,-3 -1,-4 0,-1 -1,-2 -2,-3 -1,-1 -2,-2 -3,-2 -1,-1 -3,-1 -4,-1 -2,0 -4,0 -6,1 -2,1 -3,2 -5,3 -1,1 -3,3 -4,4 -1,2 -2,4 -3,5 -1,2 -1,4 -2,6 0,2 -1,4 -1,6 5,0 9,-1 12,-2 4,-1 7,-2 9,-3 2,-1 4,-3 6,-4 1,-2 2,-4 2,-6zm29 56l-1 0c0,-3 1,-6 1,-10 0,-4 0,-7 1,-11 0,-4 0,-7 0,-11 0,-4 0,-7 0,-10 0,-3 0,-6 0,-9 0,-3 0,-5 0,-6 0,-1 0,-2 0,-3 0,-1 0,-2 -1,-2 0,-1 -1,-1 -1,-1 -1,0 -2,0 -3,0 -1,0 -1,0 -2,0 -1,0 -1,0 -2,0 -1,0 -2,0 -2,1 -1,0 -2,0 -3,1l-1 -4c5,-2 10,-3 13,-4 3,-1 6,-1 7,-1 2,0 4,1 5,2 1,1 1,3 1,6 0,0 0,1 0,2 0,1 0,3 0,4 0,2 0,4 0,6 0,2 0,5 -1,8 0,3 0,5 -1,8 0,3 -1,6 -1,9l0 0c2,-6 3,-12 5,-18 2,-5 4,-10 7,-14 2,-4 5,-7 8,-10 3,-2 6,-4 10,-4 1,0 2,0 3,1 1,0 2,1 3,2 1,1 1,2 2,2 0,1 1,2 1,3 0,1 0,3 -1,4 -1,1 -2,3 -3,4l0 0c-1,-1 -3,-2 -4,-2 -1,-1 -2,-1 -4,-1 -1,0 -3,0 -4,1 -1,1 -3,1 -4,2 -2,2 -4,4 -5,7 -2,3 -3,6 -4,9 -1,3 -2,7 -4,11 -1,4 -2,7 -3,11 -1,4 -1,7 -2,10 0,3 -1,6 -1,8l-10 1zm69 0c0,-3 -1,-6 -2,-10 -1,-3 -1,-7 -2,-10 -1,-3 -1,-7 -2,-10 -1,-3 -1,-7 -2,-10 -1,-3 -1,-6 -2,-9 -1,-3 -1,-5 -2,-7 -1,-2 -1,-3 -2,-5 -1,-1 -1,-2 -2,-3 -1,-1 -1,-1 -2,-1 -1,0 -2,0 -2,0 -1,0 -2,0 -3,0 -1,0 -3,1 -4,1l-1 -4c2,-1 4,-1 6,-2 2,-1 4,-1 5,-2 2,0 3,-1 4,-1 1,0 2,0 3,0 1,0 2,0 2,0 1,0 1,1 2,2 1,1 1,2 2,3 1,1 1,3 2,5 0,1 1,3 2,5 1,2 1,4 2,7 1,3 1,5 2,9 1,3 1,6 2,10 1,3 1,7 2,10 1,3 1,7 1,10 2,-2 3,-5 5,-7 2,-3 3,-5 5,-8 2,-3 3,-5 4,-8 1,-3 2,-5 3,-8 1,-3 2,-5 2,-8 1,-2 1,-5 1,-7 0,-3 -1,-6 -2,-8 -1,-3 -3,-5 -5,-7l1 -1c1,0 1,0 2,0 1,0 1,0 2,0 4,0 8,1 10,3 2,2 3,5 3,9 0,3 -1,6 -2,9 -1,4 -3,7 -5,11 -2,4 -4,8 -7,12 -2,4 -5,8 -7,12 -3,4 -5,7 -7,10 -2,3 -5,6 -6,8l-5 -1zm97 -17c0,0 0,0 1,0 0,0 1,0 1,1 0,0 0,0 1,1 0,0 0,0 0,1 0,0 0,0 0,0 -2,3 -4,5 -6,7 -2,2 -4,3 -7,5 -2,1 -5,2 -7,3 -2,1 -5,1 -7,1 -4,0 -7,-1 -11,-2 -3,-2 -6,-4 -8,-7 -2,-3 -4,-6 -5,-10 -1,-4 -2,-8 -2,-12 0,-3 0,-7 1,-10 1,-3 2,-7 3,-10 1,-3 3,-6 5,-9 2,-3 4,-5 7,-7 3,-2 6,-4 9,-5 3,-1 7,-2 10,-2 2,0 5,0 7,1 2,1 4,2 6,3 2,1 3,3 4,5 1,2 1,4 1,6 0,3 -1,6 -3,9 -2,2 -5,5 -9,6 -4,2 -8,3 -13,4 -5,1 -11,2 -17,2l0 1c0,4 0,8 2,11 1,3 3,6 4,9 2,2 4,4 7,6 2,1 5,2 8,2 3,0 6,-1 9,-2 3,-1 6,-4 9,-7zm-9 -39c0,-1 0,-3 -1,-4 0,-1 -1,-2 -2,-3 -1,-1 -2,-2 -3,-2 -1,-1 -3,-1 -4,-1 -2,0 -4,0 -6,1 -2,1 -3,2 -5,3 -1,1 -3,3 -4,4 -1,2 -2,4 -3,5 -1,2 -1,4 -2,6 0,2 -1,4 -1,6 5,0 9,-1 12,-2 4,-1 7,-2 9,-3 2,-1 4,-3 6,-4 1,-2 2,-4 2,-6zm68 -43c0,-1 0,-3 0,-4 0,-1 -1,-2 -1,-2 -1,-1 -1,-1 -2,-1 -1,0 -2,0 -4,0 -1,0 -2,0 -4,0 -1,0 -3,0 -4,0l0 -5c3,0 6,-1 9,-1 3,0 5,-1 8,-1 2,0 5,0 7,-1 2,0 4,0 6,0 5,0 10,0 15,0 5,0 9,0 12,0 4,0 7,0 9,0 2,0 4,0 4,0 1,0 3,0 3,1 1,1 1,2 1,3 0,1 0,2 0,3 0,2 0,4 0,6 0,2 0,4 -1,7 0,2 0,5 -1,7l-5 0c0,-1 0,-2 0,-3 0,-1 0,-2 0,-3 0,-3 0,-5 0,-7 0,-2 -1,-3 -2,-4 -1,-1 -2,-2 -4,-2 -1,0 -3,-1 -6,-1 -2,0 -3,0 -5,0 -1,0 -3,0 -4,0l-10 0c-1,0 -1,0 -2,0 -1,0 -1,0 -2,0 -1,0 -1,0 -2,0 -1,0 -2,0 -3,0 0,6 0,12 0,20 0,8 0,16 -1,26 4,0 8,0 11,0 3,0 6,0 9,0 3,0 6,0 9,0 3,0 5,-1 7,-1 1,1 1,3 1,4 0,1 0,2 -1,2 -1,1 -1,1 -2,2 -1,0 -2,1 -4,1 -2,0 -3,0 -5,0 -3,0 -7,0 -12,-1 -4,0 -9,-1 -14,-1 0,4 0,8 0,12 0,4 0,9 0,13 0,4 0,9 0,14 0,5 0,9 0,14l-12 1 -1 0c0,-9 1,-18 1,-27 0,-8 1,-16 1,-24 0,-8 0,-16 0,-24 0,-8 0,-16 0,-24zm65 69c0,-3 0,-7 1,-10 1,-3 2,-7 3,-10 1,-3 3,-6 5,-9 2,-3 4,-5 7,-7 3,-2 5,-4 9,-5 3,-1 7,-2 10,-2 4,0 8,1 11,3 3,2 6,4 8,7 2,3 4,6 5,10 1,4 2,7 2,11 0,3 0,7 -1,10 -1,3 -2,7 -3,10 -1,3 -3,6 -5,9 -2,3 -4,5 -7,7 -3,2 -5,4 -9,5 -3,1 -7,2 -10,2 -4,0 -8,-1 -11,-3 -3,-2 -6,-4 -8,-7 -2,-3 -4,-6 -5,-10 -1,-4 -2,-7 -2,-11zm12 -5c0,2 0,4 1,7 0,2 1,4 2,7 1,2 2,4 3,6 1,2 2,3 4,5 1,1 3,2 5,3 2,1 4,1 6,1 2,0 4,-1 6,-2 2,-1 3,-2 5,-4 1,-2 2,-4 3,-6 1,-2 2,-4 2,-7 1,-2 1,-5 1,-7 0,-2 0,-4 0,-6 0,-2 0,-5 0,-7 0,-2 -1,-4 -2,-7 -1,-2 -2,-4 -3,-6 -1,-2 -2,-3 -4,-5 -1,-1 -3,-2 -5,-3 -2,-1 -4,-1 -6,-1 -2,0 -4,1 -6,1 -2,1 -3,2 -5,4 -1,2 -2,4 -3,6 -1,2 -2,4 -2,7 -1,2 -1,5 -1,7 0,2 0,4 0,6zm59 5c0,-3 0,-7 1,-10 1,-3 2,-7 3,-10 1,-3 3,-6 5,-9 2,-3 4,-5 7,-7 3,-2 5,-4 9,-5 3,-1 7,-2 10,-2 4,0 8,1 11,3 3,2 6,4 8,7 2,3 4,6 5,10 1,4 2,7 2,11 0,3 0,7 -1,10 -1,3 -2,7 -3,10 -1,3 -3,6 -5,9 -2,3 -4,5 -7,7 -3,2 -5,4 -9,5 -3,1 -7,2 -10,2 -4,0 -8,-1 -11,-3 -3,-2 -6,-4 -8,-7 -2,-3 -4,-6 -5,-10 -1,-4 -2,-7 -2,-11zm12 -5c0,2 0,4 1,7 0,2 1,4 2,7 1,2 2,4 3,6 1,2 2,3 4,5 1,1 3,2 5,3 2,1 4,1 6,1 2,0 4,-1 6,-2 2,-1 3,-2 5,-4 1,-2 2,-4 3,-6 1,-2 2,-4 2,-7 1,-2 1,-5 1,-7 0,-2 0,-4 0,-6 0,-2 0,-5 0,-7 0,-2 -1,-4 -2,-7 -1,-2 -2,-4 -3,-6 -1,-2 -2,-3 -4,-5 -1,-1 -3,-2 -5,-3 -2,-1 -4,-1 -6,-1 -2,0 -4,1 -6,1 -2,1 -3,2 -5,4 -1,2 -2,4 -3,6 -1,2 -2,4 -2,7 -1,2 -1,5 -1,7 0,2 0,4 0,6zm131 -98c-1,8 -2,17 -3,25 -1,9 -2,17 -3,26 -1,9 -1,17 -2,25 0,8 -1,16 -1,24 0,4 0,7 0,9 0,3 0,5 0,7 0,2 0,3 1,4 0,1 1,2 1,2 0,1 1,1 2,1 1,0 1,0 2,0 2,0 3,0 5,-1 2,0 4,-1 5,-2l1 3c-1,1 -3,2 -4,3 -2,1 -4,2 -6,3 -2,1 -4,1 -6,2 -2,0 -3,1 -5,1 -1,0 -2,0 -3,0 -1,0 -1,-1 -2,-1 -1,-1 -1,-1 -1,-2 0,-1 -1,-2 -1,-4 0,-2 -1,-4 -1,-7 0,-3 0,-5 0,-8 0,-3 0,-7 0,-10 0,-3 1,-7 1,-10l0 0c-2,7 -5,13 -8,18 -3,5 -6,10 -9,14 -3,4 -6,7 -9,9 -3,2 -6,3 -9,3 -3,0 -5,-1 -8,-2 -2,-1 -4,-3 -5,-6 -1,-2 -2,-5 -3,-8 -1,-3 -1,-6 -1,-10 0,-4 0,-8 1,-12 1,-4 2,-8 4,-11 2,-3 4,-7 6,-10 2,-3 5,-6 8,-8 3,-2 6,-4 9,-5 3,-1 7,-2 10,-2 3,0 5,0 8,1 3,1 5,2 8,3 0,-6 0,-11 1,-17 0,-6 1,-11 1,-17 0,-5 1,-10 1,-15 0,-5 1,-9 1,-13 0,-1 0,-1 1,-2 0,-1 1,-1 2,-1 1,0 1,-1 2,-1 1,0 2,0 2,0 2,0 4,1 6,2zm-18 69c-4,-2 -9,-3 -13,-3 -3,0 -6,0 -9,1 -3,1 -5,2 -7,4 -2,2 -4,4 -6,6 -2,2 -3,5 -4,8 -1,3 -2,6 -2,9 -1,3 -1,6 -1,9 0,1 0,2 0,4 0,1 0,3 1,4 0,1 1,3 1,4 0,1 1,3 2,4 1,1 2,2 2,3 1,1 2,1 3,1 2,0 5,-1 7,-3 2,-2 5,-4 7,-7 2,-3 5,-6 7,-10 2,-4 4,-8 6,-12 2,-4 3,-8 4,-12 1,-4 2,-7 2,-11z"/>
   <path class="fil1" d="M1080 1311c-1,-6 -2,-13 -3,-19 -1,-7 -3,-13 -4,-20 -1,2 -2,4 -3,6 -1,2 -2,5 -4,7 -1,2 -3,5 -4,7 -1,2 -3,5 -4,7 -1,2 -3,4 -4,7 -1,2 -3,4 -4,6l-5 -1c0,-3 -1,-6 -1,-10 -1,-3 -1,-7 -2,-10 -1,-3 -1,-7 -2,-10 -1,-3 -1,-7 -2,-10 -1,-3 -1,-6 -2,-8 -1,-3 -1,-5 -2,-7 -1,-2 -1,-4 -2,-5 -1,-1 -1,-2 -2,-3 -1,-1 -1,-1 -2,-1 -1,0 -1,0 -2,0 -1,0 -2,0 -3,0 -1,0 -3,1 -4,1l-1 -4c4,-2 8,-3 11,-4 3,-1 5,-1 7,-1 1,0 2,0 2,0 1,0 1,1 2,2 1,1 1,2 2,3 1,1 1,3 2,5 0,1 1,3 1,5 1,2 1,4 2,7 1,3 1,5 2,8 1,3 1,6 2,9 1,3 1,6 2,10 1,3 1,7 2,10 1,-1 2,-2 2,-4 1,-2 2,-3 3,-5 1,-2 2,-4 3,-6 1,-2 2,-4 3,-6 1,-2 2,-4 2,-5 1,-2 1,-3 1,-4 0,-1 0,-2 0,-2 0,-1 0,-1 0,-2 0,-1 0,-2 0,-3 0,-1 0,-2 -1,-4 0,-1 0,-2 -1,-3 0,-1 -1,-2 -1,-3 0,-1 0,-2 0,-2 0,-1 0,-2 1,-2 1,-1 2,-1 3,-1 1,0 2,0 3,0 1,0 2,1 3,1 1,4 2,8 3,13 1,4 2,9 3,13 1,5 2,9 3,13 1,4 2,9 3,13 2,-4 4,-7 7,-11 2,-4 4,-8 6,-11 2,-4 3,-7 4,-11 1,-4 2,-7 2,-11 0,-1 0,-3 0,-4 0,-1 -1,-3 -1,-4 0,-1 -1,-2 -2,-4 -1,-1 -2,-2 -3,-3l1 -1c1,0 1,0 2,0 1,0 1,0 2,0 4,0 7,1 10,3 2,2 3,5 3,9 0,3 -1,6 -2,9 -1,4 -3,7 -4,11 -2,4 -4,8 -6,12 -2,4 -5,8 -7,12 -2,4 -5,7 -7,11 -2,3 -4,6 -6,9l-5 -1zm61 -92c-1,0 -2,0 -3,-1 -1,-1 -2,-1 -2,-2 -1,-1 -1,-2 -1,-3 0,-1 0,-2 0,-3 0,-1 0,-3 1,-4 0,-1 1,-2 2,-3 1,-1 2,-1 3,-2 1,0 2,-1 3,-1 1,0 2,0 3,1 1,0 2,1 2,2 1,1 1,2 1,2 0,1 1,2 1,3 0,1 0,2 -1,3 0,1 -1,2 -2,3 -1,1 -2,2 -3,2 -1,1 -2,1 -3,1zm4 22c-1,4 -1,7 -1,11 0,4 -1,7 -1,11 0,3 0,7 -1,10 0,3 0,6 0,8 0,3 0,6 0,9 0,2 0,4 1,6 0,2 0,3 1,4 0,1 1,2 1,2 0,1 1,1 2,1 1,0 1,0 2,0 2,0 3,0 5,-1 2,0 4,-1 5,-2l1 3c-1,1 -3,2 -4,3 -2,1 -4,2 -6,3 -2,1 -4,1 -6,2 -2,0 -3,1 -5,1 -1,0 -2,0 -2,0 -1,0 -1,-1 -2,-1 -1,-1 -1,-1 -2,-3 0,-1 -1,-3 -1,-5 0,-2 -1,-4 -1,-7 0,-3 0,-6 0,-11 0,-2 0,-5 0,-8 0,-3 0,-6 0,-10 0,-4 0,-7 0,-11 0,-4 0,-8 1,-12 0,-1 0,-2 1,-2 0,-1 1,-1 2,-1 1,0 1,-1 2,-1 1,0 1,0 2,0 2,0 4,0 6,1zm44 -37c-1,6 -2,13 -3,19 -1,7 -2,13 -2,19 2,0 3,0 4,0 1,0 3,0 4,0 1,0 2,0 3,0 1,0 2,0 3,0 3,0 5,0 7,-1 0,1 0,1 0,1 0,0 0,1 0,1 0,1 -1,2 -2,3 -1,0 -3,1 -5,1 -2,0 -5,0 -7,0 -3,0 -6,0 -9,-1 0,4 -1,7 -1,10 0,3 0,6 -1,9 0,3 0,6 0,8 0,2 0,5 0,7 0,4 0,7 1,9 0,3 1,5 2,7 1,2 2,3 4,4 2,1 4,1 6,1 2,0 4,0 6,-1 2,-1 5,-2 7,-3 1,1 1,2 1,3 -2,1 -4,3 -6,4 -2,1 -4,2 -6,3 -2,1 -4,1 -6,2 -2,0 -4,1 -5,1 -2,0 -4,0 -6,-1 -2,-1 -3,-2 -5,-4 -1,-2 -2,-5 -3,-8 -1,-3 -1,-8 -1,-13 0,-3 0,-6 0,-9 0,-3 0,-6 0,-10 0,-3 0,-6 1,-10 0,-3 1,-6 1,-9 -3,0 -5,0 -7,0 -2,0 -4,0 -6,1 0,0 0,0 0,-1 0,-1 0,-1 1,-2 1,-1 2,-1 3,-2 1,0 3,-1 4,-1 2,0 3,-1 5,-1 1,-7 2,-13 2,-19 1,-6 2,-11 3,-16 0,-1 0,-2 1,-2 0,-1 1,-1 2,-1 1,0 1,-1 2,-1 1,0 1,0 2,0 1,0 2,0 3,0 1,0 2,1 2,1zm38 80c2,-8 5,-15 8,-21 3,-6 6,-10 9,-14 3,-4 6,-6 9,-8 3,-2 6,-2 8,-2 2,0 4,0 5,1 2,1 3,2 4,3 1,1 2,3 3,6 1,2 1,5 1,8 0,1 0,2 0,4 0,2 0,4 0,6 0,2 0,4 -1,7 0,2 0,5 -1,7 0,2 0,4 0,6 0,2 0,4 0,5 0,3 0,5 0,6 0,2 1,3 1,4 0,1 1,2 2,2 1,0 2,1 3,1 2,0 3,0 5,-1 2,0 4,-1 6,-2l1 3c-1,1 -3,2 -4,3 -2,1 -4,2 -6,3 -2,1 -4,1 -6,2 -2,0 -4,1 -5,1 -2,0 -3,0 -4,-1 -1,-1 -2,-2 -2,-4 0,-2 -1,-4 -1,-6 0,-2 0,-5 0,-7 0,-3 0,-6 0,-9 0,-3 0,-6 1,-9 0,-3 0,-6 1,-8 0,-2 0,-4 0,-6 0,-4 -1,-6 -2,-8 -1,-2 -3,-3 -6,-3 -2,0 -4,1 -6,2 -2,2 -4,4 -6,7 -2,3 -4,6 -6,10 -2,4 -4,8 -5,12 -2,4 -3,9 -4,14 -1,5 -2,10 -2,14l-10 1 -1 0c0,-4 0,-8 1,-13 0,-5 1,-10 1,-15 0,-5 1,-11 1,-16 0,-6 1,-11 1,-17 0,-6 1,-12 1,-18 0,-6 1,-12 1,-18 0,-6 1,-11 1,-17 0,-6 1,-11 1,-16 0,-1 0,-1 1,-2 0,-1 1,-1 2,-1 1,0 1,-1 2,-1 1,0 2,0 3,0 2,0 4,1 6,2 -1,7 -1,13 -2,18 -1,6 -1,11 -2,15 0,5 -1,9 -1,13 0,4 -1,8 -1,12 0,4 -1,7 -1,11 0,4 0,7 -1,11 0,4 -1,8 -1,12 0,4 -1,8 -1,13l0 0zm115 -71c0,-2 0,-3 0,-4 0,-1 0,-2 -1,-3 -1,-1 -1,-1 -2,-1 -1,0 -2,0 -4,0 -1,0 -2,0 -4,0 -2,0 -3,0 -5,1l0 -4c5,-1 9,-2 12,-3 3,-1 6,-1 8,-1 2,0 4,0 5,1 1,1 2,1 3,3 1,1 1,2 1,4 0,2 0,3 0,6 0,0 0,1 0,3 0,2 0,5 0,8 0,3 0,7 0,12 0,4 0,9 0,14 0,5 0,10 0,15 0,5 0,10 -1,15 0,5 0,10 -1,14 0,4 -1,8 -1,12 3,0 6,-1 9,-1 3,0 5,0 8,0 3,0 6,0 9,0 3,0 6,0 9,0 2,0 4,0 5,-1 2,-1 3,-2 4,-3 1,-1 2,-3 3,-6 1,-2 1,-6 2,-10l4 0c0,6 0,10 -1,14 -1,4 -2,7 -3,9 -1,2 -3,4 -4,4 -2,1 -4,1 -6,1 -2,0 -4,0 -6,0 -2,0 -4,-1 -7,-1 -2,0 -5,-1 -8,-1 -3,0 -6,0 -9,0 -3,0 -6,0 -10,1 -3,0 -7,1 -11,2l-1 0c1,-4 1,-9 1,-14 0,-5 1,-10 1,-16 0,-6 1,-11 1,-17 0,-6 0,-12 0,-17 0,-6 0,-11 0,-17 0,-6 0,-11 0,-16zm68 69c0,-3 0,-7 1,-10 1,-3 2,-7 3,-10 1,-3 3,-6 5,-9 2,-3 4,-5 7,-7 3,-2 5,-4 9,-5 3,-1 7,-2 10,-2 4,0 8,1 11,3 3,2 6,4 8,7 2,3 4,6 5,10 1,4 2,7 2,11 0,3 0,7 -1,10 -1,3 -2,7 -3,10 -1,3 -3,6 -5,9 -2,3 -4,5 -7,7 -3,2 -5,4 -9,5 -3,1 -7,2 -10,2 -4,0 -8,-1 -11,-3 -3,-2 -6,-4 -8,-7 -2,-3 -4,-6 -5,-10 -1,-4 -2,-7 -2,-11zm12 -5c0,2 0,4 1,7 0,2 1,4 2,7 1,2 2,4 3,6 1,2 2,3 4,5 1,1 3,2 5,3 2,1 4,1 6,1 2,0 4,-1 6,-2 2,-1 3,-2 5,-4 1,-2 2,-4 3,-6 1,-2 2,-4 2,-7 1,-2 1,-5 1,-7 0,-2 0,-4 0,-6 0,-2 0,-5 0,-7 0,-2 -1,-4 -2,-7 -1,-2 -2,-4 -3,-6 -1,-2 -2,-3 -4,-5 -1,-1 -3,-2 -5,-3 -2,-1 -4,-1 -6,-1 -2,0 -4,1 -6,1 -2,1 -3,2 -5,4 -1,2 -2,4 -3,6 -1,2 -2,4 -2,7 -1,2 -1,5 -1,7 0,2 0,4 0,6zm77 34c0,-3 -1,-6 -2,-10 -1,-3 -1,-7 -2,-10 -1,-3 -1,-7 -2,-10 -1,-3 -1,-7 -2,-10 -1,-3 -1,-6 -2,-9 -1,-3 -1,-5 -2,-7 -1,-2 -1,-3 -2,-5 -1,-1 -1,-2 -2,-3 -1,-1 -1,-1 -2,-1 -1,0 -2,0 -2,0 -1,0 -2,0 -3,0 -1,0 -3,1 -4,1l-1 -4c2,-1 4,-1 6,-2 2,-1 4,-1 5,-2 2,0 3,-1 4,-1 1,0 2,0 3,0 1,0 2,0 2,0 1,0 1,1 2,2 1,1 1,2 2,3 1,1 1,3 2,5 0,1 1,3 2,5 1,2 1,4 2,7 1,3 1,5 2,9 1,3 1,6 2,10 1,3 1,7 2,10 1,3 1,7 1,10 2,-2 3,-5 5,-7 2,-3 3,-5 5,-8 2,-3 3,-5 4,-8 1,-3 2,-5 3,-8 1,-3 2,-5 2,-8 1,-2 1,-5 1,-7 0,-3 -1,-6 -2,-8 -1,-3 -3,-5 -5,-7l1 -1c1,0 1,0 2,0 1,0 1,0 2,0 4,0 8,1 10,3 2,2 3,5 3,9 0,3 -1,6 -2,9 -1,4 -3,7 -5,11 -2,4 -4,8 -7,12 -2,4 -5,8 -7,12 -3,4 -5,7 -7,10 -2,3 -5,6 -6,8l-5 -1zm97 -17c0,0 0,0 1,0 0,0 1,0 1,1 0,0 0,0 1,1 0,0 0,0 0,1 0,0 0,0 0,0 -2,3 -4,5 -6,7 -2,2 -4,3 -7,5 -2,1 -5,2 -7,3 -2,1 -5,1 -7,1 -4,0 -7,-1 -11,-2 -3,-2 -6,-4 -8,-7 -2,-3 -4,-6 -5,-10 -1,-4 -2,-8 -2,-12 0,-3 0,-7 1,-10 1,-3 2,-7 3,-10 1,-3 3,-6 5,-9 2,-3 4,-5 7,-7 3,-2 6,-4 9,-5 3,-1 7,-2 10,-2 2,0 5,0 7,1 2,1 4,2 6,3 2,1 3,3 4,5 1,2 1,4 1,6 0,3 -1,6 -3,9 -2,2 -5,5 -9,6 -4,2 -8,3 -13,4 -5,1 -11,2 -17,2l0 1c0,4 0,8 2,11 1,3 3,6 4,9 2,2 4,4 7,6 2,1 5,2 8,2 3,0 6,-1 9,-2 3,-1 6,-4 9,-7zm-9 -39c0,-1 0,-3 -1,-4 0,-1 -1,-2 -2,-3 -1,-1 -2,-2 -3,-2 -1,-1 -3,-1 -4,-1 -2,0 -4,0 -6,1 -2,1 -3,2 -5,3 -1,1 -3,3 -4,4 -1,2 -2,4 -3,5 -1,2 -1,4 -2,6 0,2 -1,4 -1,6 5,0 9,-1 12,-2 4,-1 7,-2 9,-3 2,-1 4,-3 6,-4 1,-2 2,-4 2,-6zm97 4c0,-3 0,-5 -1,-7 -1,-2 -2,-3 -3,-5 -1,-1 -3,-2 -5,-3 -2,-1 -3,-1 -5,-1 -2,0 -4,0 -6,1 -2,1 -3,1 -4,2 -1,1 -2,2 -2,3 0,1 -1,2 -1,4 0,2 0,3 1,5 1,2 1,3 2,5l0 1c-2,1 -4,1 -6,1 -1,0 -2,0 -3,-1 -1,0 -2,-1 -2,-1 -1,-1 -1,-1 -2,-2 0,-1 -1,-2 -1,-3 0,-2 0,-4 1,-5 1,-2 2,-3 4,-5 2,-1 3,-3 5,-4 2,-1 4,-2 6,-3 2,-1 4,-1 6,-2 2,0 4,-1 6,-1 3,0 6,0 9,1 2,1 4,2 6,4 1,2 3,4 3,6 1,2 1,5 1,8 0,2 0,4 0,7 0,3 0,5 -1,8 0,3 0,6 -1,9 0,3 0,6 0,9 0,5 1,8 3,11 2,2 4,4 7,4 3,0 5,-1 8,-3l1 2c-2,2 -5,4 -7,5 -3,1 -5,2 -8,2 -2,0 -4,0 -6,-1 -2,-1 -3,-2 -5,-3 -1,-1 -2,-3 -3,-5 -1,-2 -1,-5 -1,-7 0,-1 0,-2 0,-3 0,-1 0,-2 0,-3l0 0c-1,3 -3,6 -5,8 -2,3 -4,5 -6,7 -2,2 -5,4 -7,5 -2,1 -5,2 -8,2 -2,0 -4,0 -6,-1 -2,-1 -3,-2 -5,-3 -1,-1 -2,-3 -3,-5 -1,-2 -1,-4 -1,-6 0,-3 1,-5 2,-8 1,-2 3,-4 4,-6 2,-2 4,-3 7,-5 3,-1 5,-2 8,-3 3,-1 6,-2 10,-2 3,0 7,-1 10,-1 0,-2 0,-4 1,-6 0,-2 0,-4 0,-6zm-30 34c0,1 0,2 0,4 0,1 1,2 1,3 1,1 1,2 2,2 1,1 2,1 3,1 1,0 3,0 5,-1 2,-1 3,-2 5,-3 2,-1 3,-3 4,-4 1,-2 3,-4 4,-5 1,-2 2,-4 3,-6 1,-2 1,-4 1,-7 -2,0 -5,0 -7,0 -2,0 -5,1 -7,1 -2,1 -4,1 -6,2 -2,1 -3,2 -5,3 -1,1 -2,3 -3,4 -1,2 -1,4 -1,6z"/>
   <path class="fil1" d="M1724 1254c0,-1 0,-2 0,-3 0,-1 0,-2 -1,-2 0,-1 -1,-1 -2,-1 -1,0 -1,0 -2,0 -1,0 -3,0 -4,0 -2,0 -3,1 -6,1l-1 -4c2,-1 5,-2 7,-2 2,-1 4,-1 6,-2 2,0 3,-1 5,-1 1,0 2,0 3,0 2,0 3,1 4,2 1,1 2,3 2,6 0,0 0,1 0,2 0,1 0,3 0,5 0,2 0,4 0,6 0,2 0,5 -1,8 0,3 0,5 -1,8 0,3 -1,6 -1,8l0 0c2,-8 5,-15 8,-21 3,-6 6,-10 9,-14 3,-4 6,-6 9,-8 3,-2 6,-2 8,-2 2,0 4,0 5,1 2,1 3,2 4,3 1,1 2,3 3,6 1,2 1,5 1,9 0,1 0,2 0,4 0,2 0,3 0,5 0,2 0,4 -1,6 0,2 0,4 -1,7 0,2 0,4 0,6 0,2 0,4 0,5 0,3 0,5 0,6 0,2 1,3 1,4 1,1 1,2 2,2 1,0 2,1 3,1 2,0 3,0 5,-1 2,0 4,-1 6,-2l1 3c-1,1 -3,2 -4,3 -2,1 -4,2 -6,3 -2,1 -4,1 -6,2 -2,0 -4,1 -5,1 -2,0 -3,0 -4,-1 -1,-1 -2,-2 -2,-4 -1,-2 -1,-4 -1,-6 0,-2 0,-5 0,-7 0,-3 0,-6 0,-9 0,-3 0,-6 1,-9 0,-3 0,-6 1,-8 0,-2 0,-4 0,-6 0,-4 -1,-7 -2,-8 -1,-2 -3,-3 -6,-3 -2,0 -4,1 -6,2 -2,2 -4,4 -6,7 -2,3 -4,6 -6,10 -2,4 -4,8 -5,12 -2,4 -3,9 -4,14 -1,5 -2,10 -2,14l-10 1 -1 0c0,-3 1,-6 1,-10 0,-4 0,-7 1,-11 0,-4 0,-7 0,-11 0,-4 0,-7 0,-10 0,-3 0,-6 0,-9 0,-3 0,-5 0,-6zm147 -75c-1,8 -2,17 -3,25 -1,9 -2,17 -3,26 -1,9 -1,17 -2,25 0,8 -1,16 -1,24 0,4 0,7 0,9 0,3 0,5 0,7 0,2 0,3 1,4 0,1 1,2 1,2 0,1 1,1 2,1 1,0 1,0 2,0 2,0 3,0 5,-1 2,0 4,-1 5,-2l1 3c-1,1 -3,2 -4,3 -2,1 -4,2 -6,3 -2,1 -4,1 -6,2 -2,0 -3,1 -5,1 -1,0 -2,0 -3,0 -1,0 -1,-1 -2,-1 -1,-1 -1,-1 -1,-2 0,-1 -1,-2 -1,-4 0,-2 -1,-4 -1,-7 0,-3 0,-5 0,-8 0,-3 0,-7 0,-10 0,-3 1,-7 1,-10l0 0c-2,7 -5,13 -8,18 -3,5 -6,10 -9,14 -3,4 -6,7 -9,9 -3,2 -6,3 -9,3 -3,0 -5,-1 -8,-2 -2,-1 -4,-3 -5,-6 -1,-2 -2,-5 -3,-8 -1,-3 -1,-6 -1,-10 0,-4 0,-8 1,-12 1,-4 2,-8 4,-11 2,-3 4,-7 6,-10 2,-3 5,-6 8,-8 3,-2 6,-4 9,-5 3,-1 7,-2 10,-2 3,0 5,0 8,1 3,1 5,2 8,3 0,-6 0,-11 1,-17 0,-6 1,-11 1,-17 0,-5 1,-10 1,-15 0,-5 1,-9 1,-13 0,-1 0,-1 1,-2 0,-1 1,-1 2,-1 1,0 1,-1 2,-1 1,0 2,0 2,0 2,0 4,1 6,2zm-18 69c-4,-2 -9,-3 -13,-3 -3,0 -6,0 -9,1 -3,1 -5,2 -7,4 -2,2 -4,4 -6,6 -2,2 -3,5 -4,8 -1,3 -2,6 -2,9 -1,3 -1,6 -1,9 0,1 0,2 0,4 0,1 0,3 1,4 0,1 1,3 1,4 0,1 1,3 2,4 1,1 2,2 2,3 1,1 2,1 3,1 2,0 5,-1 7,-3 2,-2 5,-4 7,-7 2,-3 5,-6 7,-10 2,-4 4,-8 6,-12 2,-4 3,-8 4,-12 1,-4 2,-7 2,-11zm79 36c-1,3 -2,6 -3,9 -1,2 -2,5 -2,6 -1,2 -1,3 -2,5 -1,1 -1,3 -1,4 -1,1 -1,2 -2,3 -1,1 -1,1 -2,1 -1,0 -2,0 -2,1 -1,0 -2,0 -3,0 -1,0 -1,0 -2,0 -1,0 -2,0 -2,0l-1 0c4,-8 8,-17 11,-24 4,-8 7,-15 10,-22 -1,-1 -1,-2 -1,-3 0,-1 1,-2 3,-2 6,-13 11,-25 16,-35 5,-10 9,-18 12,-25 0,-1 1,-1 1,-2 1,0 1,-1 2,-1 1,0 1,0 2,0 1,0 1,0 2,0 1,0 2,0 3,0 1,0 2,0 3,1 2,11 4,21 6,30 2,9 3,17 5,24 1,7 3,13 4,18 1,5 3,10 4,14 1,4 2,7 4,9 1,2 2,4 4,6 1,1 3,2 4,3 1,1 3,1 5,1 1,0 2,0 3,0 1,0 2,-1 4,-1l1 4c-4,2 -7,3 -11,4 -3,1 -6,1 -9,1 -1,0 -3,0 -4,-1 -1,-1 -3,-1 -4,-3 -1,-1 -2,-3 -4,-5 -1,-2 -2,-5 -3,-9 -1,-3 -2,-8 -4,-12 -1,-5 -3,-10 -4,-17 -6,0 -12,0 -18,0 -6,0 -12,1 -18,1 -1,3 -2,6 -3,9 -1,3 -2,5 -3,7zm41 -24c-1,-3 -1,-7 -2,-11 -1,-4 -2,-8 -2,-12 -1,-4 -2,-9 -2,-14 -1,-5 -2,-10 -2,-14l0 0c-5,10 -9,19 -13,28 -4,9 -7,17 -10,24 6,0 11,0 16,0 5,0 11,0 16,0zm66 -16c2,0 3,0 5,0 1,0 3,0 4,0 1,0 2,0 4,0 1,0 2,0 3,0 1,0 3,0 4,0 1,0 2,0 3,0 0,1 1,2 1,3 0,1 -1,2 -2,3 -1,0 -3,1 -5,1 -2,0 -5,0 -7,0 -3,0 -6,0 -9,-1 0,4 0,8 -1,13 0,5 0,9 -1,14 0,5 -1,10 -1,15 0,5 -1,10 -2,15 -1,5 -1,9 -2,14 -1,4 -2,8 -3,12 -2,6 -4,10 -6,14 -2,4 -5,7 -8,9 -3,2 -6,4 -8,5 -3,1 -6,1 -9,1 -2,0 -5,0 -7,-1 -2,-1 -4,-1 -6,-2 -2,-1 -3,-2 -4,-3 -1,-1 -1,-3 -1,-4 0,-1 0,-2 1,-2 0,-1 1,-1 1,-2 1,-1 1,-1 2,-1 1,0 2,-1 3,-1 1,2 2,3 3,4 1,1 2,2 4,3 1,1 3,1 4,2 1,0 3,1 4,1 4,0 7,-1 10,-4 3,-2 5,-6 7,-10 2,-4 3,-10 4,-16 1,-6 2,-13 2,-21 1,-8 1,-16 1,-25 0,-9 0,-18 0,-28 -3,0 -6,0 -8,0 -3,0 -5,1 -7,1 0,0 0,-1 0,-1 0,-1 0,-1 1,-2 1,-1 2,-1 3,-2 1,0 3,-1 5,-1 2,0 4,-1 6,-1 0,-3 0,-6 0,-9 0,-3 0,-6 1,-8 0,-3 1,-5 1,-8 0,-3 1,-6 2,-8 1,-4 2,-7 3,-10 1,-3 3,-6 5,-8 2,-2 4,-4 6,-6 2,-2 4,-3 6,-4 2,-1 4,-2 7,-2 2,-1 4,-1 7,-1 3,0 6,0 8,1 2,1 5,2 6,3 2,1 3,3 4,5 1,2 1,3 1,5 0,1 0,3 -1,4 0,1 -1,2 -2,3 -1,1 -2,1 -3,2 -1,0 -2,1 -3,1 -1,0 -3,0 -5,-1l0 -1c1,-1 1,-3 1,-4 0,-1 0,-2 0,-3 0,-2 0,-3 -1,-4 -1,-1 -1,-2 -2,-3 -1,-1 -2,-1 -3,-2 -1,0 -2,0 -4,0 -4,0 -7,1 -9,2 -2,2 -5,4 -6,7 -2,3 -3,6 -4,10 -1,4 -2,8 -2,12 -1,4 -1,9 -1,14 0,5 0,10 -1,15zm46 0c2,0 3,0 5,0 1,0 3,0 4,0 1,0 2,0 4,0 1,0 2,0 3,0 1,0 3,0 4,0 1,0 2,0 3,0 0,1 1,2 1,3 0,1 -1,2 -2,3 -1,0 -3,1 -5,1 -2,0 -5,0 -7,0 -3,0 -6,0 -9,-1 0,4 0,8 -1,13 0,5 0,9 -1,14 0,5 -1,10 -1,15 0,5 -1,10 -2,15 -1,5 -1,9 -2,14 -1,4 -2,8 -3,12 -2,6 -4,10 -6,14 -2,4 -5,7 -8,9 -3,2 -6,4 -8,5 -3,1 -6,1 -9,1 -2,0 -5,0 -7,-1 -2,-1 -4,-1 -6,-2 -2,-1 -3,-2 -4,-3 -1,-1 -1,-3 -1,-4 0,-1 0,-2 1,-2 0,-1 1,-1 1,-2 1,-1 1,-1 2,-1 1,0 2,-1 3,-1 1,2 2,3 3,4 1,1 2,2 4,3 1,1 3,1 4,2 1,0 3,1 4,1 4,0 7,-1 10,-4 3,-2 5,-6 7,-10 2,-4 3,-10 4,-16 1,-6 2,-13 2,-21 1,-8 1,-16 1,-25 0,-9 0,-18 0,-28 -3,0 -6,0 -8,0 -3,0 -5,1 -7,1 0,0 0,-1 0,-1 0,-1 0,-1 1,-2 1,-1 2,-1 3,-2 1,0 3,-1 5,-1 2,0 4,-1 6,-1 0,-3 0,-6 0,-9 0,-3 0,-6 1,-8 0,-3 1,-5 1,-8 0,-3 1,-6 2,-8 1,-4 2,-7 3,-10 1,-3 3,-6 5,-8 2,-2 4,-4 6,-6 2,-2 4,-3 6,-4 2,-1 4,-2 7,-2 2,-1 4,-1 7,-1 3,0 6,0 8,1 2,1 5,2 6,3 2,1 3,3 4,5 1,2 1,3 1,5 0,1 0,3 -1,4 0,1 -1,2 -2,3 -1,1 -2,1 -3,2 -1,0 -2,1 -3,1 -1,0 -3,0 -5,-1l0 -1c1,-1 1,-3 1,-4 0,-1 0,-2 0,-3 0,-2 0,-3 -1,-4 -1,-1 -1,-2 -2,-3 -1,-1 -2,-1 -3,-2 -1,0 -2,0 -4,0 -4,0 -7,1 -9,2 -2,2 -5,4 -6,7 -2,3 -3,6 -4,10 -1,4 -2,8 -2,12 -1,4 -1,9 -1,14 0,5 0,10 -1,15zm74 52c0,0 0,0 1,0 0,0 1,0 1,1 0,0 0,0 1,1 0,0 0,0 0,1 0,0 0,0 0,0 -2,3 -4,5 -6,7 -2,2 -4,3 -7,5 -2,1 -5,2 -7,3 -2,1 -5,1 -7,1 -4,0 -7,-1 -11,-2 -3,-2 -6,-4 -8,-7 -2,-3 -4,-6 -5,-10 -1,-4 -2,-8 -2,-12 0,-3 0,-7 1,-10 1,-3 2,-7 3,-10 1,-3 3,-6 5,-9 2,-3 4,-5 7,-7 3,-2 6,-4 9,-5 3,-1 7,-2 10,-2 2,0 5,0 7,1 2,1 4,2 6,3 2,1 3,3 4,5 1,2 1,4 1,6 0,3 -1,6 -3,9 -2,2 -5,5 -9,6 -4,2 -8,3 -13,4 -5,1 -11,2 -17,2l0 1c0,4 0,8 2,11 1,3 3,6 4,9 2,2 4,4 7,6 2,1 5,2 8,2 3,0 6,-1 9,-2 3,-1 6,-4 9,-7zm-9 -39c0,-1 0,-3 -1,-4 0,-1 -1,-2 -2,-3 -1,-1 -2,-2 -3,-2 -1,-1 -3,-1 -4,-1 -2,0 -4,0 -6,1 -2,1 -3,2 -5,3 -1,1 -3,3 -4,4 -1,2 -2,4 -3,5 -1,2 -1,4 -2,6 0,2 -1,4 -1,6 5,0 9,-1 12,-2 4,-1 7,-2 9,-3 2,-1 4,-3 6,-4 1,-2 2,-4 2,-6zm62 4c1,-2 1,-4 1,-5 0,-1 0,-2 -1,-4 0,-1 -1,-2 -2,-3 -1,-1 -2,-2 -3,-2 -1,-1 -3,-1 -5,-1 -3,0 -5,0 -7,1 -2,1 -4,2 -5,4 -2,2 -3,3 -4,5 -1,2 -2,4 -3,7 -1,2 -1,5 -2,7 0,2 0,5 0,7 0,4 1,8 2,11 1,3 3,6 4,9 2,2 4,4 6,6 2,1 5,2 8,2 3,0 6,-1 9,-2 3,-2 6,-4 9,-7 0,0 0,0 1,0 0,0 1,0 1,1 0,0 0,0 1,1 0,0 0,0 0,1 0,0 0,0 0,0l0 0c-3,5 -7,9 -11,11 -4,3 -9,4 -15,4 -3,0 -5,0 -8,-1 -2,-1 -5,-2 -7,-3 -2,-1 -4,-3 -5,-5 -1,-2 -3,-4 -4,-6 -1,-2 -2,-5 -2,-7 -1,-2 -1,-5 -1,-8 0,-3 0,-7 1,-10 1,-3 2,-7 3,-10 1,-3 3,-6 5,-9 2,-3 4,-5 7,-7 3,-2 5,-4 9,-5 3,-1 7,-2 10,-2 3,0 5,0 7,1 2,1 4,2 6,3 2,1 3,3 4,4 1,2 1,4 1,6 0,1 0,2 -1,4 0,1 -1,2 -2,3 -1,1 -2,1 -3,2 -1,0 -2,1 -3,1 -1,0 -1,0 -2,0 -1,0 -1,0 -2,-1l0 -1zm46 -55c-1,6 -2,13 -3,19 -1,7 -2,13 -2,19 2,0 3,0 4,0 1,0 3,0 4,0 1,0 2,0 3,0 1,0 2,0 3,0 3,0 5,0 7,-1 0,1 0,1 0,1 0,0 0,1 0,1 0,1 -1,2 -2,3 -1,0 -3,1 -5,1 -2,0 -5,0 -7,0 -3,0 -6,0 -9,-1 0,4 -1,7 -1,10 0,3 0,6 -1,9 0,3 0,6 0,8 0,2 0,5 0,7 0,4 0,7 1,9 0,3 1,5 2,7 1,2 2,3 4,4 2,1 4,1 6,1 2,0 4,0 6,-1 2,-1 5,-2 7,-3 1,1 1,2 1,3 -2,1 -4,3 -6,4 -2,1 -4,2 -6,3 -2,1 -4,1 -6,2 -2,0 -4,1 -5,1 -2,0 -4,0 -6,-1 -2,-1 -3,-2 -5,-4 -1,-2 -2,-5 -3,-8 -1,-3 -1,-8 -1,-13 0,-3 0,-6 0,-9 0,-3 0,-6 0,-10 0,-3 0,-6 1,-10 0,-3 1,-6 1,-9 -3,0 -5,0 -7,0 -2,0 -4,0 -6,1 0,0 0,0 0,-1 0,-1 0,-1 1,-2 1,-1 2,-1 3,-2 1,0 3,-1 4,-1 2,0 3,-1 5,-1 1,-7 2,-13 2,-19 1,-6 2,-11 3,-16 0,-1 0,-2 1,-2 0,-1 1,-1 2,-1 1,0 1,-1 2,-1 1,0 1,0 2,0 1,0 2,0 3,0 1,0 2,1 2,1z"/>
   <path class="fil1" d="M2298 1219c-1,0 -2,0 -3,-1 -1,-1 -2,-1 -2,-2 -1,-1 -1,-2 -1,-3 0,-1 0,-2 0,-3 0,-1 0,-3 1,-4 0,-1 1,-2 2,-3 1,-1 2,-1 3,-2 1,0 2,-1 3,-1 1,0 2,0 3,1 1,0 2,1 2,2 1,1 1,2 1,2 0,1 1,2 1,3 0,1 0,2 -1,3 0,1 -1,2 -2,3 -1,1 -2,2 -3,2 -1,1 -2,1 -3,1zm4 22c-1,4 -1,7 -1,11 0,4 -1,7 -1,11 0,3 0,7 -1,10 0,3 0,6 0,8 0,3 0,6 0,9 0,2 0,4 1,6 0,2 0,3 1,4 0,1 1,2 1,2 0,1 1,1 2,1 1,0 1,0 2,0 2,0 3,0 5,-1 2,0 4,-1 5,-2l1 3c-1,1 -3,2 -4,3 -2,1 -4,2 -6,3 -2,1 -4,1 -6,2 -2,0 -3,1 -5,1 -1,0 -2,0 -2,0 -1,0 -1,-1 -2,-1 -1,-1 -1,-1 -2,-3 0,-1 -1,-3 -1,-5 0,-2 -1,-4 -1,-7 0,-3 0,-6 0,-11 0,-2 0,-5 0,-8 0,-3 0,-6 0,-10 0,-4 0,-7 0,-11 0,-4 0,-8 1,-12 0,-1 0,-2 1,-2 0,-1 1,-1 2,-1 1,0 1,-1 2,-1 1,0 1,0 2,0 2,0 4,0 6,1zm19 41c0,-3 0,-7 1,-10 1,-3 2,-7 3,-10 1,-3 3,-6 5,-9 2,-3 4,-5 7,-7 3,-2 5,-4 9,-5 3,-1 7,-2 10,-2 4,0 8,1 11,3 3,2 6,4 8,7 2,3 4,6 5,10 1,4 2,7 2,11 0,3 0,7 -1,10 -1,3 -2,7 -3,10 -1,3 -3,6 -5,9 -2,3 -4,5 -7,7 -3,2 -5,4 -9,5 -3,1 -7,2 -10,2 -4,0 -8,-1 -11,-3 -3,-2 -6,-4 -8,-7 -2,-3 -4,-6 -5,-10 -1,-4 -2,-7 -2,-11zm12 -5c0,2 0,4 1,7 0,2 1,4 2,7 1,2 2,4 3,6 1,2 2,3 4,5 1,1 3,2 5,3 2,1 4,1 6,1 2,0 4,-1 6,-2 2,-1 3,-2 5,-4 1,-2 2,-4 3,-6 1,-2 2,-4 2,-7 1,-2 1,-5 1,-7 0,-2 0,-4 0,-6 0,-2 0,-5 0,-7 0,-2 -1,-4 -2,-7 -1,-2 -2,-4 -3,-6 -1,-2 -2,-3 -4,-5 -1,-1 -3,-2 -5,-3 -2,-1 -4,-1 -6,-1 -2,0 -4,1 -6,1 -2,1 -3,2 -5,4 -1,2 -2,4 -3,6 -1,2 -2,4 -2,7 -1,2 -1,5 -1,7 0,2 0,4 0,6zm69 -23c0,-1 0,-2 0,-3 0,-1 0,-2 -1,-2 0,-1 -1,-1 -2,-1 -1,0 -1,0 -2,0 -1,0 -3,0 -4,0 -2,0 -3,1 -6,1l-1 -4c2,-1 5,-2 7,-2 2,-1 4,-1 6,-2 2,0 3,-1 5,-1 1,0 2,0 3,0 2,0 3,1 4,2 1,1 2,3 2,6 0,0 0,1 0,2 0,1 0,3 0,5 0,2 0,4 0,6 0,2 0,5 -1,8 0,3 0,5 -1,8 0,3 -1,6 -1,8l0 0c2,-8 5,-15 8,-21 3,-6 6,-10 9,-14 3,-4 6,-6 9,-8 3,-2 6,-2 8,-2 2,0 4,0 5,1 2,1 3,2 4,3 1,1 2,3 3,6 1,2 1,5 1,9 0,1 0,2 0,4 0,2 0,3 0,5 0,2 0,4 -1,6 0,2 0,4 -1,7 0,2 0,4 0,6 0,2 0,4 0,5 0,3 0,5 0,6 0,2 1,3 1,4 1,1 1,2 2,2 1,0 2,1 3,1 2,0 3,0 5,-1 2,0 4,-1 6,-2l1 3c-1,1 -3,2 -4,3 -2,1 -4,2 -6,3 -2,1 -4,1 -6,2 -2,0 -4,1 -5,1 -2,0 -3,0 -4,-1 -1,-1 -2,-2 -2,-4 -1,-2 -1,-4 -1,-6 0,-2 0,-5 0,-7 0,-3 0,-6 0,-9 0,-3 0,-6 1,-9 0,-3 0,-6 1,-8 0,-2 0,-4 0,-6 0,-4 -1,-7 -2,-8 -1,-2 -3,-3 -6,-3 -2,0 -4,1 -6,2 -2,2 -4,4 -6,7 -2,3 -4,6 -6,10 -2,4 -4,8 -5,12 -2,4 -3,9 -4,14 -1,5 -2,10 -2,14l-10 1 -1 0c0,-3 1,-6 1,-10 0,-4 0,-7 1,-11 0,-4 0,-7 0,-11 0,-4 0,-7 0,-10 0,-3 0,-6 0,-9 0,-3 0,-5 0,-6z"/>
  </g>
  <path class="fil2" d="M1601 701l0 0c68,-48 43,-117 -7,-166 7,3 15,6 22,8 53,16 117,3 130,-70l0 0c15,-86 -60,-117 -134,-112 -25,2 -51,7 -78,13 39,-12 76,-27 104,-45 46,-31 77,-87 30,-144l0 0c-56,-67 -128,-29 -172,30 -8,11 -15,23 -22,35 5,-14 9,-27 13,-40 18,-71 1,-151 -87,-151l0 0c-74,0 -98,60 -92,115 4,33 17,71 32,108 -12,-25 -25,-48 -40,-68 -43,-59 -115,-98 -172,-30l0 0c-48,57 -17,114 30,144 27,18 65,33 104,45 -27,-6 -53,-12 -78,-13 -73,-5 -149,26 -134,112l0 0c13,73 76,86 130,70 10,-3 20,-7 30,-11 -5,4 -10,8 -14,12 -61,53 -101,130 -33,174l0 0c57,37 115,-3 147,-54l1 -1 0 0 1 -2 1 -1 0 0 1 -2 1 -2 1 -2 1 -3 1 -2c1,-3 3,-7 4,-10l1 -2 1 -3 1 -2c1,-2 2,-5 3,-7l1 -2 1 -1 0 0 1 -2 1 -2 0 -1 0 -1 1 -2 1 -1 0 0 1 -2 1 -2 0 -1 0 -1 1 -2 1 -2 1 -2 1 -2 0 -1 0 -1 1 -2 1 -2 0 0 1 -2 1 -2 1 -2 1 -2 1 -2 0 0 1 -2 1 -2 0 -1 0 -1 1 -2 1 -2 0 0 1 -2 1 -2 0 -1 0 -1 1 -2 1 -2 0 0 1 -2 1 -2 0 -1 0 -1 1 -2 1 -2 0 0 1 -2 1 -2 0 -1 0 -1 1 -2 1 -2 0 0 0 0 1 -2 0 0 0 0 0 0 0 0 0 0 0 0 0 0 0 0 0 0 0 0 0 0 0 0 0 0 0 0 0 0 0 0 0 -1 0 0 0 0 0 0 0 0 0 0 0 0 0 0 0 0 0 0 0 0 0 0 0 0 0 0 0 0 0 0 0 0 0 0 0 0 0 0 0 0 0 0 0 0 0 0 0 0 0 0 0 0 0 0 0 0 0 0 0 0 0 0 0 0 0 0 0 0 0 0 0 0 0 0 0 0 0 0 0 0 0 0 0 0 0 0c21,-73 16,-117 16,-117l-28 5c0,0 9,-33 28,-40 1,-8 3,-20 3,-34 0,-26 0,-50 26,-43 22,5 13,39 -3,61 -3,5 -10,10 -15,15 2,0 5,1 7,2 29,11 5,67 33,161l0 0 0 0 1 5 0 0 2 5 0 0c25,76 64,203 172,149z"/>
  <path class="fil3" d="M1399 117l0 0c28,0 33,25 27,48 -6,23 -23,52 -28,64 -6,-16 -26,-51 -29,-75 -2,-17 5,-36 29,-36z"/>
  <path class="fil3" d="M1173 222l0 0c18,-21 41,-9 54,10 14,19 25,51 31,62 -16,-5 -55,-13 -76,-26 -15,-10 -24,-28 -9,-46z"/>
  <path class="fil3" d="M1107 462l0 0c-5,-27 19,-37 42,-35 24,2 55,14 68,16 -15,9 -45,34 -69,41 -17,5 -37,1 -41,-22z"/>
  <path class="fil3" d="M1201 667l0 0c-21,-14 -9,-38 10,-55 20,-17 52,-33 64,-41 -6,17 -14,57 -28,79 -10,16 -28,29 -47,17z"/>
  <path class="fil3" d="M1623 222l0 0c-18,-21 -41,-9 -54,10 -14,19 -25,51 -31,62 16,-5 55,-13 76,-26 15,-10 24,-28 9,-46z"/>
  <path class="fil3" d="M1688 462l0 0c5,-27 -19,-37 -42,-35 -24,2 -55,14 -68,16 15,9 45,34 69,41 17,5 37,1 41,-22z"/>
  <path class="fil3" d="M1568 653l0 0c23,-16 13,-40 -5,-55 -18,-16 -48,-29 -59,-36 4,17 8,56 20,78 8,15 25,27 45,13z"/>
  <rect class="fil4" width="2786" height="1440"/>
 </g>
</svg>
