<?xml version="1.0" encoding="utf-8"?>
<!-- Generator: Adobe Illustrator 19.0.0, SVG Export Plug-In . SVG Version: 6.00 Build 0)  -->
<svg version="1.1" id="Layer_1" xmlns="http://www.w3.org/2000/svg" xmlns:xlink="http://www.w3.org/1999/xlink" x="0px" y="0px"
	 viewBox="0 35 100 32" style="enable-background:new 0 35 100 32;" xml:space="preserve">
<style type="text/css">
	.st0{fill:#212020;}
	.st1{font-family:'Montserrat-SemiBold';}
	.st2{font-size:14px;}
	.st3{font-family:'Montserrat-Regular';}
	.st4{font-size:6px;}
	.st5{fill:#FA1115;}
	.st6{fill:#118E34;}
	.st7{fill:#F39011;}
</style>
<text id="XMLID_1_" transform="matrix(1 0 0 1 18.783 54.5967)" class="st0 st1 st2">SURVEYS</text>
<text id="XMLID_2_" transform="matrix(1 0 0 1 19.4615 62.1433)" class="st3 st4">FEEDBACKS</text>
<path id="XMLID_3_" class="st5" d="M23.3,43.5L23.3,43.5c-1.4,0-2.5-1.1-2.5-2.5l0,0c0-1.4,1.1-2.5,2.5-2.5l0,0
	c1.4,0,2.5,1.1,2.5,2.5l0,0C25.8,42.4,24.7,43.5,23.3,43.5z"/>
<path id="XMLID_4_" class="st6" d="M33.4,43.5L33.4,43.5c-1.4,0-2.5-1.1-2.5-2.5l0,0c0-1.4,1.1-2.5,2.5-2.5l0,0
	c1.4,0,2.5,1.1,2.5,2.5l0,0C35.9,42.4,34.8,43.5,33.4,43.5z"/>
<path id="XMLID_5_" class="st7" d="M42.8,43.5L42.8,43.5c-1.4,0-2.5-1.1-2.5-2.5l0,0c0-1.4,1.1-2.5,2.5-2.5l0,0
	c1.4,0,2.5,1.1,2.5,2.5l0,0C45.3,42.4,44.2,43.5,42.8,43.5z"/>
</svg>
