<?xml version="1.0" encoding="utf-8"?>
<!-- Generator: Adobe Illustrator 19.0.0, SVG Export Plug-In . SVG Version: 6.00 Build 0)  -->
<svg version="1.1" id="Layer_1" xmlns="http://www.w3.org/2000/svg" xmlns:xlink="http://www.w3.org/1999/xlink" x="0px" y="0px"
	 viewBox="0 13.7 100 50" style="enable-background:new 0 13.7 100 50;" xml:space="preserve">
<style type="text/css">
	.st0{fill:#212020;}
	.st1{font-family:'Montserrat-SemiBold';}
	.st2{font-size:14px;}
	.st3{font-family:'Montserrat-Regular';}
	.st4{font-size:6px;}
	.st5{fill:#FA1115;}
	.st6{fill:#118E34;}
	.st7{fill:#F39011;}
	.st8{fill:#494849;}
	.st9{font-family:'Lato-Regular';}
	.st10{font-size:5px;}
	.st11{fill:none;stroke:#5E5D5E;stroke-width:0.25;stroke-miterlimit:10;}
</style>
<text id="XMLID_1_" transform="matrix(1 0 0 1 18.783 50.4481)" class="st0 st1 st2">SURVEYS</text>
<text id="XMLID_2_" transform="matrix(1 0 0 1 19.4615 57.9947)" class="st3 st4">FEEDBACKS</text>
<path id="XMLID_3_" class="st5" d="M23.3,39.4L23.3,39.4c-1.4,0-2.5-1.1-2.5-2.5l0,0c0-1.4,1.1-2.5,2.5-2.5l0,0
	c1.4,0,2.5,1.1,2.5,2.5l0,0C25.8,38.3,24.7,39.4,23.3,39.4z"/>
<path id="XMLID_4_" class="st6" d="M33.4,39.4L33.4,39.4c-1.4,0-2.5-1.1-2.5-2.5l0,0c0-1.4,1.1-2.5,2.5-2.5l0,0
	c1.4,0,2.5,1.1,2.5,2.5l0,0C35.9,38.3,34.8,39.4,33.4,39.4z"/>
<path id="XMLID_5_" class="st7" d="M42.8,39.4L42.8,39.4c-1.4,0-2.5-1.1-2.5-2.5l0,0c0-1.4,1.1-2.5,2.5-2.5l0,0
	c1.4,0,2.5,1.1,2.5,2.5l0,0C45.3,38.3,44.2,39.4,42.8,39.4z"/>
<text transform="matrix(1 0 0 1 40.3117 31.0604)" class="st8 st9 st10">Powered by</text>
<line class="st11" x1="29.3" y1="18.7" x2="76.4" y2="18.7"/>
</svg>
