<svg height="512pt" viewBox="-25 0 512 512" width="512pt" xmlns="http://www.w3.org/2000/svg"><path d="m80.925781 176.035156c32.371094 0 58.707031-26.335937 58.707031-58.703125 0-32.371093-26.335937-58.707031-58.707031-58.707031-32.371093 0-58.703125 26.335938-58.703125 58.707031 0 32.367188 26.332032 58.703125 58.703125 58.703125zm0-87.441406c15.847657 0 28.734375 12.890625 28.734375 28.738281 0 15.84375-12.886718 28.734375-28.734375 28.734375-15.84375 0-28.734375-12.890625-28.734375-28.734375 0-15.847656 12.890625-28.738281 28.734375-28.738281zm0 0"/><path d="m229.769531 139.863281c38.5625 0 69.933594-31.371093 69.933594-69.929687 0-38.5625-31.371094-69.933594-69.933594-69.933594-38.558593 0-69.929687 31.371094-69.929687 69.933594 0 38.558594 31.371094 69.929687 69.929687 69.929687zm0-109.890625c22.035157 0 39.960938 17.925782 39.960938 39.960938 0 22.03125-17.925781 39.960937-39.960938 39.960937-22.035156 0-39.960937-17.929687-39.960937-39.960937 0-22.035156 17.925781-39.960938 39.960937-39.960938zm0 0"/><path d="m422.765625 193.761719h-84.226563c-5.125 0-10.019531 1.007812-14.503906 2.820312-6.890625-16.007812-22.8125-27.246093-41.316406-27.246093h-105.847656c-18.253906 0-33.988282 10.9375-41.023438 26.597656-4.007812-1.402344-8.308594-2.171875-12.792968-2.171875h-84.222657c-21.410156 0-38.832031 17.417969-38.832031 38.832031v77.902344c0 14.429687 7.847656 27.195312 19.835938 33.890625v113.167969c0 8.273437 6.710937 14.984374 14.984374 14.984374h92.25c8.273438 0 14.984376-6.710937 14.984376-14.984374v-113.167969c.726562-.40625 1.433593-.835938 2.128906-1.285157 3.597656 3.808594 7.871094 6.996094 12.660156 9.363282v144.550781c0 8.273437 6.707031 14.984375 14.984375 14.984375h115.933594c8.273437 0 14.984375-6.710938 14.984375-14.984375v-144.550781c5.140625-2.542969 9.6875-6.023438 13.445312-10.207032 1.082032.757813 2.191406 1.480469 3.351563 2.128907v113.167969c0 8.273437 6.710937 14.984374 14.984375 14.984374h92.25c8.273437 0 14.984375-6.710937 14.984375-14.984374v-113.167969c11.984375-6.695313 19.835937-19.460938 19.835937-33.890625v-77.902344c0-21.414062-17.421875-38.832031-38.832031-38.832031zm-290.851563 116.847656c-.058593 4.214844-3.203124 7.910156-7.367187 8.621094-7.199219 1.226562-12.464844 7.46875-12.464844 14.769531v108.566406h-62.277343v-108.566406c0-7.300781-5.265626-13.542969-12.464844-14.769531-4.199219-.71875-7.367188-4.472657-7.367188-8.734375v-77.902344c0-4.886719 3.972656-8.863281 8.859375-8.863281h84.226563c4.847656 0 8.796875 3.917969 8.855468 8.757812zm165.789063 1.585937c0 7.207032-5.355469 13.558594-12.460937 14.769532-7.199219 1.230468-12.464844 7.46875-12.464844 14.773437v140.289063h-85.964844v-140.289063c0-7.304687-5.265625-13.542969-12.464844-14.773437-7.105468-1.210938-12.464844-7.5625-12.464844-14.769532v-1.542968c0-.054688.007813-.105469.007813-.160156v-77.898438c0-.070312-.007813-.140625-.007813-.210938v-18.09375c0-8.261718 6.722657-14.984374 14.988282-14.984374h105.847656c8.261719 0 14.984375 6.722656 14.984375 14.984374zm133.921875-1.703124c0 4.265624-3.167969 8.019531-7.367188 8.738281-7.199218 1.226562-12.464843 7.464843-12.464843 14.769531v108.566406h-62.277344v-108.566406c0-7.300781-5.265625-13.542969-12.464844-14.769531-4.203125-.71875-7.371093-4.472657-7.371093-8.734375v-77.902344c0-4.886719 3.976562-8.863281 8.863281-8.863281h84.222656c4.886719 0 8.863281 3.976562 8.863281 8.863281v77.898438zm0 0"/><path d="m380.632812 176.035156c32.371094 0 58.707032-26.335937 58.707032-58.703125 0-32.371093-26.335938-58.707031-58.707032-58.707031-32.367187 0-58.703124 26.335938-58.703124 58.707031 0 32.367188 26.335937 58.703125 58.703124 58.703125zm0-87.441406c15.847657 0 28.738282 12.890625 28.738282 28.738281 0 15.84375-12.890625 28.734375-28.738282 28.734375-15.84375 0-28.734374-12.890625-28.734374-28.734375 0-15.847656 12.890624-28.738281 28.734374-28.738281zm0 0"/></svg>